<?xml version="1.0" encoding="utf-8"?>
<!-- Uploaded to: SVG Repo, www.svgrepo.com, Generator: SVG Repo Mixer Tools -->
<svg fill="#01F9C0" height="800px" width="800px" version="1.1" id="_x32_" xmlns="http://www.w3.org/2000/svg" xmlns:xlink="http://www.w3.org/1999/xlink" 
	 viewBox="0 0 512 512"  xml:space="preserve">
	<g>
		<path class="st0" d="M477.364,394.541c-6.64,0-12.656,2.695-17.015,7.038l-28.156-7.038c0,0,24.093-54.21,51.194-117.46
			c21.36-49.827-6.336-92.256-33.124-96.373c-16.609-2.555-28.835,2.492-37.46,9.125c-4.687-30.093-15.062-57.648-29.406-81.194
			c19.062-9.282,32.226-28.781,32.226-51.414C415.622,25.616,390.014,0,358.405,0c-24.664,0-45.617,15.624-53.663,37.492
			c-15.688-6.71-32.14-10.382-48.742-10.382s-33.054,3.672-48.742,10.382C199.22,15.624,178.267,0,153.603,0
			c-31.601,0-57.226,25.616-57.226,57.226c0,22.624,13.172,42.132,32.234,51.414c-14.352,23.546-24.719,51.093-29.414,81.194
			c-8.616-6.633-20.851-11.68-37.452-9.125c-26.788,4.117-54.484,46.546-33.132,96.373c27.109,63.25,51.202,117.46,51.202,117.46
			l-28.164,7.038c-4.36-4.343-10.375-7.038-17.016-7.038c-13.305,0-24.093,10.788-24.093,24.093
			c0,13.304,10.788,24.093,24.093,24.093c9.539,0,17.703-5.586,21.609-13.625l83.804-20.703V307.198l15.062,13.554v91.858
			l-27.75,23.476c-3.406-1.844-7.258-2.992-11.405-2.992c-13.305,0-24.094,10.789-24.094,24.093
			c0,13.305,10.789,24.093,24.094,24.093c12.718,0,23.023-9.882,23.913-22.374l24.273-16.18v26.508
			c-5.469,4.413-9.031,11.093-9.031,18.672c0,13.304,10.789,24.093,24.093,24.093c13.305,0,24.093-10.79,24.093-24.093
			c0-8.898-4.875-16.578-12.046-20.758v-30.444l12.351,8.992c-0.133,1.008-0.305,2.008-0.305,3.054
			c0,13.305,10.79,24.094,24.093,24.094c13.305,0,24.094-10.789,24.094-24.094c0-13.304-10.789-24.093-24.094-24.093
			c-2.531,0-4.922,0.492-7.21,1.226l-19.898-16.28v-18.078h26.608h18.57h21.078h18.578h26.601v18.078l-19.891,16.28
			c-2.297-0.734-4.687-1.226-7.21-1.226c-13.313,0-24.101,10.789-24.101,24.093c0,13.305,10.788,24.094,24.101,24.094
			c13.304,0,24.093-10.789,24.093-24.094c0-1.046-0.18-2.046-0.305-3.054l12.351-8.992v30.444
			c-7.171,4.18-12.046,11.86-12.046,20.758c0,13.304,10.789,24.093,24.093,24.093c13.304,0,24.093-10.79,24.093-24.093
			c0-7.578-3.562-14.258-9.039-18.672v-26.508l24.273,16.18c0.89,12.492,11.203,22.374,23.922,22.374
			c13.304,0,24.094-10.788,24.094-24.093c0-13.304-10.79-24.093-24.094-24.093c-4.156,0-8,1.148-11.406,2.992l-27.75-23.476v-91.858
			l15.055-13.554V408.4l83.803,20.703c3.906,8.039,12.078,13.625,21.609,13.625c13.313,0,24.093-10.789,24.093-24.093
			C501.457,405.33,490.676,394.541,477.364,394.541z M130.869,57.226c0-12.554,10.18-22.718,22.734-22.718
			c12.562,0,22.726,10.164,22.726,22.718c0,12.555-10.164,22.742-22.726,22.742C141.049,79.968,130.869,69.78,130.869,57.226z
			M354.647,171.677H157.354c-1.508,0.281-2.829,0.367-3.75,0h3.75c14.874-2.774,56.718-34.132,98.646-34.132
			S339.78,168.904,354.647,171.677h3.758C357.475,172.044,356.154,171.958,354.647,171.677z M358.405,79.968
			c-12.554,0-22.734-10.187-22.734-22.742c0-12.554,10.18-22.718,22.734-22.718c12.562,0,22.726,10.164,22.726,22.718
			C381.131,69.78,370.967,79.968,358.405,79.968z"/>
	</g>
</svg>