<svg xmlns="http://www.w3.org/2000/svg" viewBox="0 0 53.626 53.626" fill="none">
  <path
    fill="currentColor"
    d="M48.831 15.334c-7.083-11.637-17.753-3.541-17.753-3.541-.692.523-1.968.953-2.835.955l-2.858.002c-.867.001-2.143-.429-2.834-.952 0 0-10.671-8.098-17.755 3.539C-2.286 26.97.568 39.639.568 39.639c.5 3.102 2.148 5.172 5.258 4.912 3.101-.259 9.832-8.354 9.832-8.354.556-.667 1.721-1.212 2.586-1.212l17.134-.003c.866 0 2.03.545 2.585 1.212 0 0 6.732 8.095 9.838 8.354 3.106.26 4.758-1.812 5.255-4.912.499-3.105 3.358-15.772-3.725-27.408zM20.374 24.806H16.7v3.541s-.778.594-1.982.579c-1.202-.018-1.746-.648-1.746-.648v-3.471H9.502s-.433-.444-.549-1.613c-.114-1.169.479-2.114.479-2.114h3.675v-3.674s.756-.405 1.843-.374c1.088.034 1.885.443 1.885.443l-.015 3.604h3.47s.606.778.656 1.718c.052.94-.57 2.008-.57 2.008zM37.226 28.842c-1.609 0-2.906-1.301-2.906-2.908 0-1.61 1.297-2.908 2.906-2.908 1.602 0 2.909 1.298 2.909 2.908 0 1.608-1.307 2.908-2.909 2.908zm0-8.001c-1.609 0-2.906-1.3-2.906-2.907 0-1.61 1.297-2.908 2.906-2.908 1.602 0 2.909 1.298 2.909 2.908 0 1.608-1.307 2.908-2.909 2.908zm7.242 4.295c-1.609 0-2.906-1.3-2.906-2.908 0-1.609 1.297-2.908 2.906-2.908 1.602 0 2.909 1.299 2.909 2.908 0 1.608-1.307 2.908-2.909 2.908z"
  />
</svg>