<svg xmlns="http://www.w3.org/2000/svg" xml:space="preserve" width="2666.667" height="2666.667" preserveAspectRatio="xMinYMin slice" viewBox="0 0 2666.667 2666.667"><path d="M11166.3 8053.67H8150v48.9h2996l953.7 953.65h4362.6v-48.9h-4342.4z" style="fill:#19262c;fill-opacity:1;fill-rule:nonzero;stroke:none" transform="matrix(.1636 0 0 -.1636 0 2666.667)"/><path d="M9900 10008.6c-53.38 0-96.8-43.4-96.8-96.8s43.42-96.8 96.8-96.8c53.37 0 96.8 43.4 96.8 96.8s-43.43 96.8-96.8 96.8m0-253.6c-86.46 0-156.8 70.3-156.8 156.8s70.34 156.8 156.8 156.8 156.8-70.3 156.8-156.8S9986.46 9755 9900 9755m376.8-1042.6c-53.4 0-96.8-43.5-96.8-96.8 0-53.4 43.4-96.8 96.8-96.8s96.8 43.4 96.8 96.8c0 53.3-43.4 96.8-96.8 96.8m0-253.6c-86.4 0-156.8 70.3-156.8 156.8 0 86.4 70.4 156.8 156.8 156.8 86.5 0 156.8-70.4 156.8-156.8 0-86.5-70.3-156.8-156.8-156.8m379.7 796.8c-53.3 0-96.8-43.4-96.8-96.8s43.5-96.8 96.8-96.8c53.4 0 96.8 43.4 96.8 96.8s-43.4 96.8-96.8 96.8m0-253.6c-86.4 0-156.8 70.4-156.8 156.8 0 86.5 70.4 156.8 156.8 156.8 86.5 0 156.8-70.3 156.8-156.8 0-86.4-70.3-156.8-156.8-156.8m-1673.61 473.3c-53.37 0-96.8-43.4-96.8-96.8 0-53.3 43.43-96.8 96.8-96.8 53.38 0 96.8 43.5 96.8 96.8 0 53.4-43.42 96.8-96.8 96.8m0-253.6c-86.46 0-156.8 70.4-156.8 156.8 0 86.5 70.34 156.8 156.8 156.8s156.8-70.3 156.8-156.8c0-86.4-70.34-156.8-156.8-156.8m1225.31-5161.6c-53.4 0-96.8-43.4-96.8-96.8 0-53.3 43.4-96.8 96.8-96.8s96.8 43.5 96.8 96.8c0 53.4-43.4 96.8-96.8 96.8m0-253.6c-86.4 0-156.8 70.4-156.8 156.8 0 86.5 70.4 156.8 156.8 156.8 86.5 0 156.8-70.3 156.8-156.8 0-86.4-70.3-156.8-156.8-156.8m605.3-277.4c-53.4 0-96.8-43.4-96.8-96.8s43.4-96.8 96.8-96.8 96.8 43.4 96.8 96.8-43.4 96.8-96.8 96.8m0-253.6c-86.4 0-156.8 70.3-156.8 156.8 0 86.4 70.4 156.8 156.8 156.8 86.5 0 156.8-70.4 156.8-156.8 0-86.5-70.3-156.8-156.8-156.8m370.5-2261.7c-53.3 0-96.8-43.398-96.8-96.698 0-53.403 43.5-96.801 96.8-96.801 53.4 0 96.8 43.398 96.8 96.801 0 53.3-43.4 96.698-96.8 96.698m0-253.499c-86.4 0-156.8 70.301-156.8 156.801 0 86.398 70.4 156.698 156.8 156.698 86.5 0 156.8-70.3 156.8-156.698 0-86.5-70.3-156.801-156.8-156.801m517.4 1179.399c-53.4 0-96.8-43.4-96.8-96.8 0-53.3 43.4-96.8 96.8-96.8s96.8 43.5 96.8 96.8c0 53.4-43.4 96.8-96.8 96.8m0-253.6c-86.5 0-156.8 70.4-156.8 156.8 0 86.5 70.3 156.8 156.8 156.8 86.4 0 156.8-70.3 156.8-156.8 0-86.4-70.4-156.8-156.8-156.8m-671.5-1278.698c-53.4 0-96.8-43.402-96.8-96.8 0-53.301 43.4-96.801 96.8-96.801 53.3 0 96.8 43.5 96.8 96.801 0 53.398-43.5 96.8-96.8 96.8m0-253.601c-86.5 0-156.8 70.402-156.8 156.801 0 86.5 70.3 156.8 156.8 156.8 86.4 0 156.8-70.3 156.8-156.8 0-86.399-70.4-156.801-156.8-156.801M8108 9475.3c-53.38 0-96.8-43.4-96.8-96.8 0-53.3 43.42-96.8 96.8-96.8s96.8 43.5 96.8 96.8c0 53.4-43.42 96.8-96.8 96.8m0-253.6c-86.46 0-156.8 70.4-156.8 156.8 0 86.5 70.34 156.8 156.8 156.8s156.8-70.3 156.8-156.8c0-86.4-70.34-156.8-156.8-156.8m-658.46-41.1c-53.38 0-96.8-43.4-96.8-96.8s43.42-96.8 96.8-96.8 96.8 43.4 96.8 96.8-43.42 96.8-96.8 96.8m0-253.6c-86.46 0-156.8 70.3-156.8 156.8s70.34 156.8 156.8 156.8 156.8-70.3 156.8-156.8S7536 8927 7449.54 8927M6496.8 7707.5c-53.38 0-96.8-43.4-96.8-96.8s43.42-96.8 96.8-96.8 96.8 43.4 96.8 96.8-43.42 96.8-96.8 96.8m0-253.6c-86.46 0-156.8 70.4-156.8 156.8 0 86.5 70.34 156.8 156.8 156.8s156.8-70.3 156.8-156.8c0-86.4-70.34-156.8-156.8-156.8m-630 792.9c-53.38 0-96.8-43.5-96.8-96.8 0-53.4 43.42-96.8 96.8-96.8s96.8 43.4 96.8 96.8c0 53.3-43.42 96.8-96.8 96.8m0-253.6c-86.46 0-156.8 70.3-156.8 156.8 0 86.4 70.34 156.8 156.8 156.8s156.8-70.4 156.8-156.8c0-86.5-70.34-156.8-156.8-156.8m-4677.89-874.8c-53.38 0-96.81-43.4-96.81-96.8 0-53.3 43.43-96.8 96.81-96.8 53.37 0 96.79 43.5 96.79 96.8 0 53.4-43.42 96.8-96.79 96.8m0-253.6c-86.46 0-156.81 70.4-156.81 156.8 0 86.5 70.35 156.8 156.81 156.8s156.79-70.3 156.79-156.8c0-86.4-70.33-156.8-156.79-156.8m425.94-939.8c-53.37 0-96.79-43.4-96.79-96.8s43.42-96.8 96.79-96.8c53.38 0 96.81 43.4 96.81 96.8s-43.43 96.8-96.81 96.8m0-253.6c-86.46 0-156.79 70.3-156.79 156.8s70.33 156.8 156.79 156.8 156.81-70.3 156.81-156.8-70.35-156.8-156.81-156.8m-330.1-2666c-53.38 0-96.81-43.5-96.81-96.8 0-53.4 43.43-96.8 96.81-96.8s96.8 43.4 96.8 96.8c0 53.3-43.42 96.8-96.8 96.8m0-253.6c-86.46 0-156.81 70.3-156.81 156.8 0 86.4 70.35 156.8 156.81 156.8s156.8-70.4 156.8-156.8c0-86.5-70.34-156.8-156.8-156.8m-756.449-417.4c-53.379 0-96.801-43.4-96.801-96.8s43.422-96.8 96.801-96.8c53.375 0 96.797 43.4 96.797 96.8s-43.422 96.8-96.797 96.8m0-253.6c-86.461 0-156.801 70.4-156.801 156.8 0 86.5 70.34 156.8 156.801 156.8s156.797-70.3 156.797-156.8c0-86.4-70.336-156.8-156.797-156.8M2281.53 6082c-53.38 0-96.8-43.4-96.8-96.8 0-53.3 43.42-96.8 96.8-96.8s96.8 43.5 96.8 96.8c0 53.4-43.42 96.8-96.8 96.8m0-253.6c-86.46 0-156.8 70.4-156.8 156.8 0 86.5 70.34 156.8 156.8 156.8s156.8-70.3 156.8-156.8c0-86.4-70.34-156.8-156.8-156.8m523.61 283.3c-53.38 0-96.8-43.4-96.8-96.8s43.42-96.8 96.8-96.8 96.8 43.4 96.8 96.8-43.42 96.8-96.8 96.8m0-253.6c-86.46 0-156.8 70.4-156.8 156.8 0 86.5 70.34 156.8 156.8 156.8s156.8-70.3 156.8-156.8c0-86.4-70.34-156.8-156.8-156.8m451.15 1919c-53.37 0-96.8-43.4-96.8-96.8s43.43-96.8 96.8-96.8c53.38 0 96.8 43.4 96.8 96.8s-43.42 96.8-96.8 96.8m0-253.6c-86.46 0-156.8 70.3-156.8 156.8 0 86.4 70.34 156.8 156.8 156.8s156.8-70.4 156.8-156.8c0-86.5-70.34-156.8-156.8-156.8M6750.4 8432c-53.38 0-96.8-43.4-96.8-96.8s43.42-96.8 96.8-96.8 96.8 43.4 96.8 96.8-43.42 96.8-96.8 96.8m0-253.6c-86.46 0-156.8 70.3-156.8 156.8s70.34 156.8 156.8 156.8 156.8-70.3 156.8-156.8-70.34-156.8-156.8-156.8m527.21-1021.6c-53.38 0-96.8-43.4-96.8-96.8s43.42-96.8 96.8-96.8 96.8 43.4 96.8 96.8-43.42 96.8-96.8 96.8m0-253.6c-86.46 0-156.8 70.3-156.8 156.8 0 86.4 70.34 156.8 156.8 156.8s156.8-70.4 156.8-156.8c0-86.5-70.34-156.8-156.8-156.8m-104.76-514.6c-53.38 0-96.8-43.4-96.8-96.8s43.42-96.8 96.8-96.8 96.8 43.4 96.8 96.8-43.42 96.8-96.8 96.8m0-253.6c-86.46 0-156.8 70.3-156.8 156.8s70.34 156.8 156.8 156.8 156.8-70.3 156.8-156.8-70.34-156.8-156.8-156.8m-1309.52-58.2c-53.37 0-96.8-43.4-96.8-96.8s43.43-96.8 96.8-96.8c53.38 0 96.8 43.4 96.8 96.8s-43.42 96.8-96.8 96.8m0-253.6c-86.45 0-156.8 70.3-156.8 156.8s70.35 156.8 156.8 156.8c86.46 0 156.8-70.3 156.8-156.8s-70.34-156.8-156.8-156.8M4450 4230.1c-53.38 0-96.8-43.4-96.8-96.8 0-53.3 43.42-96.8 96.8-96.8s96.8 43.5 96.8 96.8c0 53.4-43.42 96.8-96.8 96.8m0-253.6c-86.46 0-156.8 70.4-156.8 156.8 0 86.5 70.34 156.8 156.8 156.8s156.8-70.3 156.8-156.8c0-86.4-70.34-156.8-156.8-156.8m553.33 330.7c-53.37 0-96.8-43.4-96.8-96.8 0-53.3 43.43-96.8 96.8-96.8 53.38 0 96.8 43.5 96.8 96.8 0 53.4-43.42 96.8-96.8 96.8m0-253.6c-86.45 0-156.8 70.4-156.8 156.8 0 86.5 70.35 156.8 156.8 156.8 86.46 0 156.8-70.3 156.8-156.8 0-86.4-70.34-156.8-156.8-156.8m908.4 279c-53.38 0-96.8-43.4-96.8-96.8 0-53.3 43.42-96.7 96.8-96.7s96.81 43.4 96.81 96.7c0 53.4-43.43 96.8-96.81 96.8m0-253.5c-86.46 0-156.8 70.3-156.8 156.7 0 86.5 70.34 156.8 156.8 156.8s156.81-70.3 156.81-156.8c0-86.4-70.35-156.7-156.81-156.7m-495.06-393.4c-53.38 0-96.8-43.4-96.8-96.8 0-53.3 43.42-96.8 96.8-96.8 53.37 0 96.8 43.5 96.8 96.8 0 53.4-43.43 96.8-96.8 96.8m0-253.6c-86.46 0-156.8 70.4-156.8 156.8 0 86.5 70.34 156.8 156.8 156.8s156.8-70.3 156.8-156.8c0-86.4-70.34-156.8-156.8-156.8m1391.02 1623.7c-53.38 0-96.81-43.4-96.81-96.8s43.43-96.8 96.81-96.8c53.37 0 96.8 43.4 96.8 96.8s-43.43 96.8-96.8 96.8m0-253.6c-86.46 0-156.81 70.3-156.81 156.8 0 86.4 70.35 156.8 156.81 156.8s156.8-70.4 156.8-156.8c0-86.5-70.34-156.8-156.8-156.8m89.43 902.3c-53.37 0-96.8-43.4-96.8-96.8 0-53.3 43.43-96.8 96.8-96.8 53.38 0 96.8 43.5 96.8 96.8 0 53.4-43.42 96.8-96.8 96.8m0-253.6c-86.46 0-156.8 70.4-156.8 156.8 0 86.5 70.34 156.8 156.8 156.8s156.8-70.3 156.8-156.8c0-86.4-70.34-156.8-156.8-156.8m-216.24-1290.1c-53.37 0-96.79-43.5-96.79-96.8 0-53.4 43.42-96.8 96.79-96.8 53.38 0 96.81 43.4 96.81 96.8 0 53.3-43.43 96.8-96.81 96.8m0-253.6c-86.46 0-156.79 70.3-156.79 156.8 0 86.4 70.33 156.8 156.79 156.8s156.81-70.4 156.81-156.8c0-86.5-70.35-156.8-156.81-156.8m1152.99 886.9c-53.38 0-96.8-43.5-96.8-96.8 0-53.4 43.42-96.8 96.8-96.8s96.8 43.4 96.8 96.8c0 53.3-43.42 96.8-96.8 96.8m0-253.6c-86.46 0-156.8 70.3-156.8 156.8 0 86.4 70.34 156.8 156.8 156.8s156.8-70.4 156.8-156.8c0-86.5-70.34-156.8-156.8-156.8m-4704.38 261.7c-53.38 0-96.8-43.4-96.8-96.8s43.42-96.8 96.8-96.8 96.8 43.4 96.8 96.8-43.42 96.8-96.8 96.8m0-253.6c-86.46 0-156.8 70.3-156.8 156.8s70.34 156.8 156.8 156.8 156.8-70.3 156.8-156.8-70.34-156.8-156.8-156.8m621.97-609.6c-53.38 0-96.81-43.5-96.81-96.8 0-53.4 43.43-96.8 96.81-96.8 53.37 0 96.8 43.4 96.8 96.8 0 53.3-43.43 96.8-96.8 96.8m0-253.6c-86.46 0-156.81 70.3-156.81 156.8 0 86.4 70.35 156.8 156.81 156.8s156.8-70.4 156.8-156.8c0-86.5-70.34-156.8-156.8-156.8m2491.74-884.3c-53.38 0-96.8-43.4-96.8-96.8s43.42-96.8 96.8-96.8 96.8 43.4 96.8 96.8-43.42 96.8-96.8 96.8m0-253.6c-86.46 0-156.8 70.3-156.8 156.8s70.34 156.8 156.8 156.8 156.8-70.3 156.8-156.8-70.34-156.8-156.8-156.8m613.47 584.7c-53.38 0-96.8-43.5-96.8-96.8 0-53.4 43.42-96.8 96.8-96.8 53.37 0 96.8 43.4 96.8 96.8 0 53.3-43.43 96.8-96.8 96.8m0-253.6c-86.46 0-156.8 70.3-156.8 156.8 0 86.4 70.34 156.8 156.8 156.8s156.8-70.4 156.8-156.8c0-86.5-70.34-156.8-156.8-156.8m1893.09 215.9c-53.37 0-96.8-43.4-96.8-96.8s43.43-96.8 96.8-96.8c53.38 0 96.8 43.4 96.8 96.8s-43.42 96.8-96.8 96.8m0-253.6c-86.46 0-156.8 70.3-156.8 156.8s70.34 156.8 156.8 156.8 156.8-70.3 156.8-156.8-70.34-156.8-156.8-156.8m-726.1-138.6c-53.37 0-96.79-43.4-96.79-96.8 0-53.3 43.42-96.8 96.79-96.8 53.38 0 96.8 43.5 96.8 96.8 0 53.4-43.42 96.8-96.8 96.8m0-253.6c-86.46 0-156.79 70.4-156.79 156.8 0 86.5 70.33 156.8 156.79 156.8s156.8-70.3 156.8-156.8c0-86.4-70.34-156.8-156.8-156.8M8108 3497.2c-53.38 0-96.8-43.4-96.8-96.8s43.42-96.8 96.8-96.8 96.8 43.4 96.8 96.8-43.42 96.8-96.8 96.8m0-253.6c-86.46 0-156.8 70.3-156.8 156.8 0 86.4 70.34 156.8 156.8 156.8s156.8-70.4 156.8-156.8c0-86.5-70.34-156.8-156.8-156.8m1002-782.4c-53.38 0-96.8-43.4-96.8-96.8s43.42-96.8 96.8-96.8 96.8 43.4 96.8 96.8-43.42 96.8-96.8 96.8m0-253.6c-86.46 0-156.8 70.3-156.8 156.8s70.34 156.8 156.8 156.8 156.8-70.3 156.8-156.8-70.34-156.8-156.8-156.8m336.44-298.3c-53.38 0-96.8-43.4-96.8-96.8 0-53.3 43.42-96.8 96.8-96.8 53.37 0 96.8 43.5 96.8 96.8 0 53.4-43.43 96.8-96.8 96.8m0-253.6c-86.46 0-156.8 70.4-156.8 156.8 0 86.5 70.34 156.8 156.8 156.8s156.8-70.3 156.8-156.8c0-86.4-70.34-156.8-156.8-156.8m-435.45-605.2c-53.38 0-96.8-43.4-96.8-96.801 0-53.297 43.42-96.801 96.8-96.801s96.8 43.504 96.8 96.801c0 53.401-43.42 96.801-96.8 96.801m0-253.602c-86.46 0-156.8 70.403-156.8 156.801 0 86.501 70.34 156.801 156.8 156.801s156.8-70.3 156.8-156.801c0-86.398-70.34-156.801-156.8-156.801M8059.6 1060.5c-53.38 0-96.8-43.4-96.8-96.801 0-53.297 43.42-96.801 96.8-96.801s96.8 43.504 96.8 96.801c0 53.401-43.42 96.801-96.8 96.801m0-253.602c-86.46 0-156.8 70.403-156.8 156.801 0 86.501 70.34 156.801 156.8 156.801s156.8-70.3 156.8-156.801c0-86.398-70.34-156.801-156.8-156.801m1284.01-105.496c-53.37 0-96.79-43.402-96.79-96.8 0-53.301 43.42-96.801 96.79-96.801 53.38 0 96.81 43.5 96.81 96.801 0 53.398-43.43 96.8-96.81 96.8m0-253.601c-86.46 0-156.79 70.398-156.79 156.801 0 86.5 70.33 156.8 156.79 156.8s156.81-70.3 156.81-156.8c0-86.403-70.35-156.801-156.81-156.801M7442.5 1026.7c-53.37 0-96.8-43.399-96.8-96.798 0-53.402 43.43-96.8 96.8-96.8 53.38 0 96.8 43.398 96.8 96.8 0 53.399-43.42 96.798-96.8 96.798m0-253.598c-86.46 0-156.8 70.3-156.8 156.8 0 86.498 70.34 156.798 156.8 156.798s156.8-70.3 156.8-156.798c0-86.5-70.34-156.8-156.8-156.8M4730.94 2520c-53.38 0-96.8-43.4-96.8-96.8s43.42-96.8 96.8-96.8 96.8 43.4 96.8 96.8-43.42 96.8-96.8 96.8m0-253.6c-86.46 0-156.8 70.3-156.8 156.8s70.34 156.8 156.8 156.8 156.8-70.3 156.8-156.8-70.34-156.8-156.8-156.8m-126.8-626.3c-53.38 0-96.8-43.4-96.8-96.8 0-53.3 43.42-96.8 96.8-96.8s96.8 43.5 96.8 96.8c0 53.4-43.42 96.8-96.8 96.8m0-253.6c-86.46 0-156.8 70.4-156.8 156.8 0 86.5 70.34 156.8 156.8 156.8s156.8-70.3 156.8-156.8c0-86.4-70.34-156.8-156.8-156.8m-657.89-769.898c-53.38 0-96.8-43.403-96.8-96.801 0-53.301 43.42-96.801 96.8-96.801s96.8 43.5 96.8 96.801c0 53.398-43.42 96.801-96.8 96.801m0-253.602c-86.46 0-156.8 70.402-156.8 156.801 0 86.5 70.34 156.801 156.8 156.801s156.8-70.301 156.8-156.801c0-86.399-70.34-156.801-156.8-156.801m4920.31 6662c-53.38 0-96.8-43.4-96.8-96.8s43.42-96.8 96.8-96.8 96.8 43.4 96.8 96.8-43.42 96.8-96.8 96.8m0-253.6c-86.46 0-156.8 70.4-156.8 156.8 0 86.5 70.34 156.8 156.8 156.8s156.8-70.3 156.8-156.8c0-86.4-70.34-156.8-156.8-156.8m433.13-821.4c-53.38 0-96.8-43.4-96.8-96.8s43.42-96.8 96.8-96.8 96.8 43.4 96.8 96.8-43.42 96.8-96.8 96.8m0-253.6c-86.46 0-156.8 70.3-156.8 156.8s70.34 156.8 156.8 156.8 156.8-70.3 156.8-156.8-70.34-156.8-156.8-156.8M8234.8 11879.6c-53.37 0-96.8-43.4-96.8-96.8s43.43-96.8 96.8-96.8c53.38 0 96.8 43.4 96.8 96.8s-43.42 96.8-96.8 96.8m0-253.6c-86.46 0-156.8 70.3-156.8 156.8 0 86.4 70.34 156.8 156.8 156.8s156.8-70.4 156.8-156.8c0-86.5-70.34-156.8-156.8-156.8m-1318-756c-53.38 0-96.8-43.4-96.8-96.8s43.42-96.8 96.8-96.8 96.8 43.4 96.8 96.8-43.42 96.8-96.8 96.8m0-253.6c-86.46 0-156.8 70.4-156.8 156.8 0 86.5 70.34 156.8 156.8 156.8s156.8-70.3 156.8-156.8c0-86.4-70.34-156.8-156.8-156.8m-957.57 473.8c-53.38 0-96.8-43.4-96.8-96.8s43.42-96.8 96.8-96.8 96.81 43.4 96.81 96.8-43.43 96.8-96.81 96.8m0-253.6c-86.46 0-156.8 70.3-156.8 156.8 0 86.4 70.34 156.8 156.8 156.8s156.81-70.4 156.81-156.8c0-86.5-70.35-156.8-156.81-156.8m3813.97 1118.1c-53.38 0-96.8-43.4-96.8-96.8s43.42-96.8 96.8-96.8 96.8 43.4 96.8 96.8-43.42 96.8-96.8 96.8m0-253.6c-86.46 0-156.8 70.3-156.8 156.8s70.34 156.8 156.8 156.8 156.8-70.3 156.8-156.8-70.34-156.8-156.8-156.8m502 567.2c-53.4 0-96.8-43.4-96.8-96.8 0-53.3 43.4-96.8 96.8-96.8s96.8 43.5 96.8 96.8c0 53.4-43.4 96.8-96.8 96.8m0-253.6c-86.5 0-156.8 70.4-156.8 156.8 0 86.5 70.3 156.8 156.8 156.8s156.8-70.3 156.8-156.8c0-86.4-70.3-156.8-156.8-156.8m-3358.4 1312.1c-53.38 0-96.8-43.4-96.8-96.8s43.42-96.8 96.8-96.8 96.8 43.4 96.8 96.8-43.42 96.8-96.8 96.8m0-253.6c-86.46 0-156.8 70.3-156.8 156.8s70.34 156.8 156.8 156.8 156.8-70.3 156.8-156.8-70.34-156.8-156.8-156.8m-1833.6 583.1c-53.38 0-96.8-43.4-96.8-96.8 0-53.3 43.42-96.8 96.8-96.8s96.8 43.5 96.8 96.8c0 53.4-43.42 96.8-96.8 96.8m0-253.6c-86.46 0-156.8 70.4-156.8 156.8 0 86.5 70.34 156.8 156.8 156.8s156.8-70.3 156.8-156.8c0-86.4-70.34-156.8-156.8-156.8m-253.6 1169.1c-53.38 0-96.8-43.5-96.8-96.8 0-53.4 43.42-96.8 96.8-96.8 53.37 0 96.8 43.4 96.8 96.8 0 53.3-43.43 96.8-96.8 96.8m0-253.6c-86.46 0-156.8 70.3-156.8 156.8 0 86.4 70.34 156.8 156.8 156.8s156.8-70.4 156.8-156.8c0-86.5-70.34-156.8-156.8-156.8m1133.52 356.4c-53.37 0-96.8-43.4-96.8-96.8s43.43-96.8 96.8-96.8c53.38 0 96.8 43.4 96.8 96.8s-43.42 96.8-96.8 96.8m0-253.6c-86.46 0-156.8 70.4-156.8 156.8 0 86.5 70.34 156.8 156.8 156.8s156.8-70.3 156.8-156.8c0-86.4-70.34-156.8-156.8-156.8m-518.19 404.4c-53.38 0-96.8-43.5-96.8-96.8 0-53.4 43.42-96.8 96.8-96.8s96.8 43.4 96.8 96.8c0 53.3-43.42 96.8-96.8 96.8m0-253.6c-86.46 0-156.8 70.3-156.8 156.8 0 86.4 70.34 156.8 156.8 156.8s156.8-70.4 156.8-156.8c0-86.5-70.34-156.8-156.8-156.8m-186.2 727.2c-53.38 0-96.81-43.4-96.81-96.8s43.43-96.8 96.81-96.8c53.37 0 96.79 43.4 96.79 96.8s-43.42 96.8-96.79 96.8m0-253.6c-86.46 0-156.81 70.3-156.81 156.8s70.35 156.8 156.81 156.8 156.79-70.3 156.79-156.8-70.33-156.8-156.79-156.8m-754.31 253.6c-53.37 0-96.79-43.4-96.79-96.8s43.42-96.8 96.79-96.8c53.38 0 96.81 43.4 96.81 96.8s-43.43 96.8-96.81 96.8m0-253.6c-86.46 0-156.79 70.3-156.79 156.8s70.33 156.8 156.79 156.8 156.81-70.3 156.81-156.8-70.35-156.8-156.81-156.8" style="fill:#19262c;fill-opacity:1;fill-rule:nonzero;stroke:none" transform="matrix(.13333 0 0 -.13333 0 2666.667)"/><path d="M2039 16240.1c-53.27 0-96.61-43.3-96.61-96.6 0-53.2 43.34-96.6 96.61-96.6s96.6 43.4 96.6 96.6c0 53.3-43.33 96.6-96.6 96.6m0-253.1c-86.29 0-156.48 70.2-156.48 156.5s70.19 156.5 156.48 156.5c86.28 0 156.47-70.2 156.47-156.5S2125.28 15987 2039 15987" style="fill:#19262c;fill-opacity:1;fill-rule:nonzero;stroke:none" transform="matrix(.1336 0 0 -.1336 0 2666.667)"/><path d="M1421.21 16241.1c-52.44 0-95.1-42.7-95.1-95.1 0-52.5 42.66-95.2 95.1-95.2s95.1 42.7 95.1 95.2c0 52.4-42.66 95.1-95.1 95.1m0-249.2c-84.95 0-154.05 69.1-154.05 154.1 0 84.9 69.1 154 154.05 154 84.94 0 154.05-69.1 154.05-154 0-85-69.11-154.1-154.05-154.1" style="fill:#19262c;fill-opacity:1;fill-rule:nonzero;stroke:none" transform="matrix(.13571 0 0 -.13571 0 2666.667)"/><path d="M2183.27 16246.8c-47.32 0-85.8-38.5-85.8-85.8s38.48-85.8 85.8-85.8c47.31 0 85.8 38.5 85.8 85.8s-38.49 85.8-85.8 85.8m0-224.8c-76.64 0-138.99 62.4-138.99 139s62.35 139 138.99 139c76.63 0 138.98-62.4 138.98-139s-62.35-139-138.98-139" style="fill:#19262c;fill-opacity:1;fill-rule:nonzero;stroke:none" transform="matrix(.15043 0 0 -.15043 0 2666.667)"/><path d="M2776.75 16245.7c-48.31 0-87.61-39.3-87.61-87.6s39.3-87.6 87.61-87.6c48.32 0 87.61 39.3 87.61 87.6s-39.29 87.6-87.61 87.6m0-229.5c-78.25 0-141.91 63.6-141.91 141.9 0 78.2 63.66 141.9 141.91 141.9 78.26 0 141.92-63.7 141.92-141.9 0-78.3-63.66-141.9-141.92-141.9" style="fill:#19262c;fill-opacity:1;fill-rule:nonzero;stroke:none" transform="matrix(.14732 0 0 -.14732 0 2666.667)"/><path d="M4524.89 16245.6c-48.43 0-87.82-39.4-87.82-87.8 0-48.5 39.39-87.9 87.82-87.9s87.82 39.4 87.82 87.9c0 48.4-39.39 87.8-87.82 87.8m0-230.1c-78.44 0-142.26 63.8-142.26 142.3 0 78.4 63.82 142.2 142.26 142.2 78.43 0 142.25-63.8 142.25-142.2 0-78.5-63.82-142.3-142.25-142.3" style="fill:#19262c;fill-opacity:1;fill-rule:nonzero;stroke:none" transform="matrix(.14697 0 0 -.14697 0 2666.667)"/><path d="M6265.68 16243.6c-50.19 0-91.02-40.9-91.02-91 0-50.2 40.83-91.1 91.02-91.1 50.2 0 91.03 40.9 91.03 91.1 0 50.1-40.83 91-91.03 91m0-238.5c-81.3 0-147.44 66.2-147.44 147.5s66.14 147.4 147.44 147.4 147.45-66.1 147.45-147.4-66.15-147.5-147.45-147.5" style="fill:#19262c;fill-opacity:1;fill-rule:nonzero;stroke:none" transform="matrix(.1418 0 0 -.1418 0 2666.667)"/><path d="M6979.9 16247.1c-47.1 0-85.41-38.3-85.41-85.4s38.31-85.5 85.41-85.5c47.09 0 85.41 38.4 85.41 85.5s-38.32 85.4-85.41 85.4m0-223.8c-76.28 0-138.34 62.1-138.34 138.4 0 76.2 62.06 138.3 138.34 138.3s138.35-62.1 138.35-138.3c0-76.3-62.07-138.4-138.35-138.4" style="fill:#19262c;fill-opacity:1;fill-rule:nonzero;stroke:none" transform="matrix(.15112 0 0 -.15112 0 2666.667)"/><path d="M4962.31 16247c-47.17 0-85.55-38.4-85.55-85.6 0-47.1 38.38-85.5 85.55-85.5s85.54 38.4 85.54 85.5c0 47.2-38.37 85.6-85.54 85.6m0-224.1c-76.41 0-138.57 62.1-138.57 138.5s62.16 138.6 138.57 138.6c76.4 0 138.56-62.2 138.56-138.6s-62.16-138.5-138.56-138.5" style="fill:#19262c;fill-opacity:1;fill-rule:nonzero;stroke:none" transform="matrix(.15088 0 0 -.15088 0 2666.667)"/><path d="M5728.48 16246c-48.02 0-87.09-39-87.09-87.1 0-48 39.07-87.1 87.09-87.1 48.03 0 87.1 39.1 87.1 87.1 0 48.1-39.07 87.1-87.1 87.1m0-228.2c-77.79 0-141.08 63.3-141.08 141.1s63.29 141.1 141.08 141.1c77.8 0 141.08-63.3 141.08-141.1s-63.28-141.1-141.08-141.1" style="fill:#19262c;fill-opacity:1;fill-rule:nonzero;stroke:none" transform="matrix(.1482 0 0 -.1482 0 2666.667)"/><path d="M5188.14 16244.9c-49.04 0-88.95-39.9-88.95-89 0-49 39.91-88.9 88.95-88.9 49.05 0 88.95 39.9 88.95 88.9 0 49.1-39.9 89-88.95 89m0-233.1c-79.45 0-144.09 64.7-144.09 144.1 0 79.5 64.64 144.1 144.09 144.1s144.09-64.6 144.09-144.1c0-79.4-64.64-144.1-144.09-144.1" style="fill:#19262c;fill-opacity:1;fill-rule:nonzero;stroke:none" transform="matrix(.1451 0 0 -.1451 0 2666.667)"/><path d="M5507.57 16248.1c-46.18 0-83.74-37.6-83.74-83.7 0-46.2 37.56-83.8 83.74-83.8 46.17 0 83.73 37.6 83.73 83.8 0 46.1-37.56 83.7-83.73 83.7m0-219.4c-74.8 0-135.64 60.9-135.64 135.7s60.84 135.6 135.64 135.6c74.79 0 135.64-60.8 135.64-135.6s-60.85-135.7-135.64-135.7" style="fill:#19262c;fill-opacity:1;fill-rule:nonzero;stroke:none" transform="matrix(.15413 0 0 -.15413 0 2666.667)"/><path d="M4126.44 16248.4c-45.89 0-83.22-37.3-83.22-83.2s37.33-83.3 83.22-83.3c45.9 0 83.23 37.4 83.23 83.3s-37.33 83.2-83.23 83.2m0-218c-74.33 0-134.81 60.4-134.81 134.8 0 74.3 60.48 134.8 134.81 134.8 74.34 0 134.82-60.5 134.82-134.8 0-74.4-60.48-134.8-134.82-134.8" style="fill:#19262c;fill-opacity:1;fill-rule:nonzero;stroke:none" transform="matrix(.15508 0 0 -.15508 0 2666.667)"/><path d="M2729.03 16248.7c-45.59 0-82.69-37-82.69-82.6s37.1-82.7 82.69-82.7 82.68 37.1 82.68 82.7-37.09 82.6-82.68 82.6m0-216.6c-73.86 0-133.95 60.1-133.95 134 0 73.8 60.09 133.9 133.95 133.9 73.85 0 133.94-60.1 133.94-133.9 0-73.9-60.09-134-133.94-134" style="fill:#19262c;fill-opacity:1;fill-rule:nonzero;stroke:none" transform="matrix(.15609 0 0 -.15609 0 2666.667)"/><path d="M3930.06 16246.6c-47.51 0-86.17-38.7-86.17-86.2s38.66-86.2 86.17-86.2c47.53 0 86.19 38.7 86.19 86.2s-38.66 86.2-86.19 86.2m0-225.8c-76.98 0-139.59 62.6-139.59 139.6s62.61 139.6 139.59 139.6c76.99 0 139.61-62.6 139.61-139.6s-62.62-139.6-139.61-139.6" style="fill:#19262c;fill-opacity:1;fill-rule:nonzero;stroke:none" transform="matrix(.14975 0 0 -.14975 0 2666.667)"/><path d="M4760.75 12848.7c-53.38 0-96.8-43.4-96.8-96.8s43.42-96.8 96.8-96.8 96.8 43.4 96.8 96.8-43.42 96.8-96.8 96.8m0-253.6c-86.46 0-156.8 70.3-156.8 156.8s70.34 156.8 156.8 156.8 156.8-70.3 156.8-156.8-70.34-156.8-156.8-156.8m-386.82-499.5c-53.38 0-96.81-43.4-96.81-96.8s43.43-96.8 96.81-96.8c53.37 0 96.79 43.4 96.79 96.8s-43.42 96.8-96.79 96.8m0-253.6c-86.46 0-156.81 70.3-156.81 156.8 0 86.4 70.35 156.8 156.81 156.8s156.79-70.4 156.79-156.8c0-86.5-70.33-156.8-156.79-156.8m-1297.13 88.1c-53.38 0-96.8-43.4-96.8-96.8 0-53.3 43.42-96.8 96.8-96.8s96.8 43.5 96.8 96.8c0 53.4-43.42 96.8-96.8 96.8m0-253.6c-86.46 0-156.8 70.4-156.8 156.8 0 86.5 70.34 156.8 156.8 156.8s156.8-70.3 156.8-156.8c0-86.4-70.34-156.8-156.8-156.8M2580 12897c-53.38 0-96.8-43.4-96.8-96.8s43.42-96.8 96.8-96.8 96.8 43.4 96.8 96.8-43.42 96.8-96.8 96.8m0-253.6c-86.46 0-156.8 70.3-156.8 156.8s70.34 156.8 156.8 156.8 156.8-70.3 156.8-156.8-70.34-156.8-156.8-156.8m942.89 1041.6c-53.37 0-96.8-43.5-96.8-96.8 0-53.4 43.43-96.8 96.8-96.8 53.38 0 96.8 43.4 96.8 96.8 0 53.3-43.42 96.8-96.8 96.8m0-253.6c-86.46 0-156.8 70.3-156.8 156.8 0 86.4 70.34 156.8 156.8 156.8s156.8-70.4 156.8-156.8c0-86.5-70.34-156.8-156.8-156.8m-1059.69 202.5c-53.38 0-96.8-43.5-96.8-96.8 0-53.4 43.42-96.8 96.8-96.8s96.8 43.4 96.8 96.8c0 53.3-43.42 96.8-96.8 96.8m0-253.6c-86.46 0-156.8 70.3-156.8 156.8 0 86.4 70.34 156.8 156.8 156.8s156.8-70.4 156.8-156.8c0-86.5-70.34-156.8-156.8-156.8m-1352.32 1191.5c-53.38 0-96.8-43.5-96.8-96.8 0-53.4 43.42-96.8 96.8-96.8 53.37 0 96.8 43.4 96.8 96.8 0 53.3-43.43 96.8-96.8 96.8m0-253.6c-86.46 0-156.802 70.3-156.802 156.8 0 86.4 70.342 156.8 156.802 156.8s156.8-70.4 156.8-156.8c0-86.5-70.34-156.8-156.8-156.8m-719.864 9.6c-53.375 0-96.797-43.4-96.797-96.8s43.422-96.8 96.797-96.8c53.379 0 96.8 43.4 96.8 96.8s-43.421 96.8-96.8 96.8m0-253.6c-86.461 0-156.797 70.3-156.797 156.8s70.336 156.8 156.797 156.8 156.8-70.3 156.8-156.8-70.339-156.8-156.8-156.8m846.664-944.2c-53.38 0-96.8-43.4-96.8-96.8s43.42-96.8 96.8-96.8c53.37 0 96.8 43.4 96.8 96.8s-43.43 96.8-96.8 96.8m0-253.6c-86.46 0-156.8 70.3-156.8 156.8s70.34 156.8 156.8 156.8 156.8-70.3 156.8-156.8-70.34-156.8-156.8-156.8m-486.711-37.7c-53.379 0-96.805-43.4-96.805-96.8s43.426-96.8 96.805-96.8c53.371 0 96.797 43.4 96.797 96.8s-43.426 96.8-96.797 96.8m0-253.6c-86.461 0-156.805 70.3-156.805 156.8s70.344 156.8 156.805 156.8c86.457 0 156.797-70.3 156.797-156.8s-70.34-156.8-156.797-156.8m-90.754-931c-53.375 0-96.797-43.4-96.797-96.7 0-53.4 43.422-96.8 96.797-96.8 53.379 0 96.801 43.4 96.801 96.8 0 53.3-43.422 96.7-96.801 96.7m0-253.5c-86.461 0-156.797 70.3-156.797 156.8 0 86.4 70.336 156.7 156.797 156.7s156.801-70.3 156.801-156.7c0-86.5-70.34-156.8-156.801-156.8m6966.095 1415c-53.38 0-96.8-43.4-96.8-96.8s43.42-96.8 96.8-96.8 96.8 43.4 96.8 96.8-43.42 96.8-96.8 96.8m0-253.6c-86.46 0-156.8 70.4-156.8 156.8 0 86.5 70.34 156.8 156.8 156.8s156.8-70.3 156.8-156.8c0-86.4-70.34-156.8-156.8-156.8m-937.76-28.5c-53.38 0-96.8-43.5-96.8-96.8 0-53.4 43.42-96.8 96.8-96.8 53.37 0 96.8 43.4 96.8 96.8 0 53.3-43.43 96.8-96.8 96.8m0-253.6c-86.46 0-156.8 70.3-156.8 156.8 0 86.4 70.34 156.8 156.8 156.8s156.8-70.4 156.8-156.8c0-86.5-70.34-156.8-156.8-156.8m947.88 1832.3c-53.37 0-96.8-43.5-96.8-96.8 0-53.4 43.43-96.9 96.8-96.9 53.38 0 96.8 43.5 96.8 96.9 0 53.3-43.42 96.8-96.8 96.8m0-253.7c-86.46 0-156.8 70.4-156.8 156.9 0 86.4 70.34 156.8 156.8 156.8s156.8-70.4 156.8-156.8c0-86.5-70.34-156.9-156.8-156.9m-997.52 539.8c-53.38 0-96.81-43.4-96.81-96.8 0-53.3 43.43-96.8 96.81-96.8 53.37 0 96.79 43.5 96.79 96.8 0 53.4-43.42 96.8-96.79 96.8m0-253.6c-86.46 0-156.81 70.4-156.81 156.8 0 86.5 70.35 156.8 156.81 156.8s156.79-70.3 156.79-156.8c0-86.4-70.33-156.8-156.79-156.8m-1624.56-3587.2c-53.38 0-96.8-43.4-96.8-96.8s43.42-96.8 96.8-96.8c53.37 0 96.8 43.4 96.8 96.8s-43.43 96.8-96.8 96.8m0-253.6c-86.46 0-156.8 70.3-156.8 156.8s70.34 156.8 156.8 156.8 156.8-70.3 156.8-156.8-70.34-156.8-156.8-156.8m802.45-357.5c-53.38 0-96.8-43.5-96.8-96.8 0-53.4 43.42-96.8 96.8-96.8s96.8 43.4 96.8 96.8c0 53.3-43.42 96.8-96.8 96.8m0-253.6c-86.46 0-156.8 70.3-156.8 156.8 0 86.4 70.34 156.8 156.8 156.8s156.8-70.4 156.8-156.8c0-86.5-70.34-156.8-156.8-156.8m-548.85-258.6c-53.38 0-96.8-43.4-96.8-96.8s43.42-96.8 96.8-96.8c53.37 0 96.8 43.4 96.8 96.8s-43.43 96.8-96.8 96.8m0-253.6c-86.46 0-156.8 70.3-156.8 156.8s70.34 156.8 156.8 156.8 156.8-70.3 156.8-156.8-70.34-156.8-156.8-156.8m1018.85-108c-53.38 0-96.8-43.4-96.8-96.8s43.42-96.8 96.8-96.8 96.8 43.4 96.8 96.8-43.42 96.8-96.8 96.8m0-253.6c-86.46 0-156.8 70.3-156.8 156.8s70.34 156.8 156.8 156.8 156.8-70.3 156.8-156.8-70.34-156.8-156.8-156.8m-2833.06 1723.1c-53.38 0-96.81-43.4-96.81-96.8s43.43-96.8 96.81-96.8c53.37 0 96.8 43.4 96.8 96.8s-43.43 96.8-96.8 96.8m0-253.6c-86.46 0-156.81 70.4-156.81 156.8 0 86.5 70.35 156.8 156.81 156.8s156.8-70.3 156.8-156.8c0-86.4-70.34-156.8-156.8-156.8M3440 9388.6c-53.38 0-96.8-43.4-96.8-96.8s43.42-96.8 96.8-96.8 96.8 43.4 96.8 96.8-43.42 96.8-96.8 96.8m0-253.6c-86.46 0-156.8 70.3-156.8 156.8s70.34 156.8 156.8 156.8 156.8-70.3 156.8-156.8S3526.46 9135 3440 9135m10066.8 1272.2c-53.4 0-96.8-43.4-96.8-96.8 0-53.3 43.4-96.8 96.8-96.8s96.8 43.5 96.8 96.8c0 53.4-43.4 96.8-96.8 96.8m0-253.6c-86.5 0-156.8 70.4-156.8 156.8 0 86.5 70.3 156.8 156.8 156.8s156.8-70.3 156.8-156.8c0-86.4-70.3-156.8-156.8-156.8m1569.9 716.4c-53.4 0-96.8-43.4-96.8-96.8s43.4-96.8 96.8-96.8c53.3 0 96.8 43.4 96.8 96.8s-43.5 96.8-96.8 96.8m0-253.6c-86.5 0-156.8 70.4-156.8 156.8 0 86.5 70.3 156.8 156.8 156.8 86.4 0 156.8-70.3 156.8-156.8 0-86.4-70.4-156.8-156.8-156.8M14315.3 9543c-53.4 0-96.8-43.4-96.8-96.8s43.4-96.8 96.8-96.8 96.8 43.4 96.8 96.8-43.4 96.8-96.8 96.8m0-253.6c-86.5 0-156.8 70.3-156.8 156.8 0 86.4 70.3 156.8 156.8 156.8s156.8-70.4 156.8-156.8c0-86.5-70.3-156.8-156.8-156.8m761.4 544.4c-53.4 0-96.8-43.4-96.8-96.8 0-53.3 43.4-96.8 96.8-96.8 53.3 0 96.8 43.5 96.8 96.8 0 53.4-43.5 96.8-96.8 96.8m0-253.6c-86.5 0-156.8 70.4-156.8 156.8 0 86.5 70.3 156.8 156.8 156.8 86.4 0 156.8-70.3 156.8-156.8 0-86.4-70.4-156.8-156.8-156.8m-2940.1-661.3c-53.3 0-96.8-43.4-96.8-96.8s43.5-96.8 96.8-96.8c53.4 0 96.8 43.4 96.8 96.8s-43.4 96.8-96.8 96.8m0-253.6c-86.4 0-156.8 70.3-156.8 156.8s70.4 156.8 156.8 156.8c86.5 0 156.8-70.3 156.8-156.8s-70.3-156.8-156.8-156.8m-429.4-2431c-53.4 0-96.8-43.5-96.8-96.8 0-53.4 43.4-96.8 96.8-96.8s96.8 43.4 96.8 96.8c0 53.3-43.4 96.8-96.8 96.8m0-253.6c-86.5 0-156.8 70.3-156.8 156.8 0 86.4 70.3 156.8 156.8 156.8 86.4 0 156.8-70.4 156.8-156.8 0-86.5-70.4-156.8-156.8-156.8m-188.2-514.3c-53.4 0-96.8-43.4-96.8-96.8s43.4-96.8 96.8-96.8 96.8 43.4 96.8 96.8-43.4 96.8-96.8 96.8m0-253.6c-86.5 0-156.8 70.3-156.8 156.8s70.3 156.8 156.8 156.8c86.4 0 156.8-70.3 156.8-156.8s-70.4-156.8-156.8-156.8m-1155.4 1905.6c-53.4 0-96.8-43.4-96.8-96.8 0-53.3 43.4-96.8 96.8-96.8s96.8 43.5 96.8 96.8c0 53.4-43.4 96.8-96.8 96.8m0-253.6c-86.5 0-156.8 70.4-156.8 156.8 0 86.5 70.3 156.8 156.8 156.8 86.4 0 156.8-70.3 156.8-156.8 0-86.4-70.4-156.8-156.8-156.8m456.3-376.9c-53.4 0-96.8-43.4-96.8-96.8s43.4-96.8 96.8-96.8 96.8 43.4 96.8 96.8-43.4 96.8-96.8 96.8m0-253.6c-86.5 0-156.8 70.3-156.8 156.8 0 86.4 70.3 156.8 156.8 156.8 86.4 0 156.8-70.4 156.8-156.8 0-86.5-70.4-156.8-156.8-156.8m1316.7 1939.3c-53.3 0-96.8-43.4-96.8-96.8s43.5-96.8 96.8-96.8c53.4 0 96.8 43.4 96.8 96.8s-43.4 96.8-96.8 96.8m0-253.6c-86.4 0-156.8 70.3-156.8 156.8s70.4 156.8 156.8 156.8c86.5 0 156.8-70.3 156.8-156.8s-70.3-156.8-156.8-156.8m-1851.5 153.6c-53.3 0-96.8-43.4-96.8-96.8s43.5-96.8 96.8-96.8c53.4 0 96.8 43.4 96.8 96.8s-43.4 96.8-96.8 96.8m0-253.6c-86.4 0-156.8 70.3-156.8 156.8s70.4 156.8 156.8 156.8c86.5 0 156.8-70.3 156.8-156.8s-70.3-156.8-156.8-156.8m2169.5-1688.3c-53.4 0-96.8-43.4-96.8-96.8s43.4-96.8 96.8-96.8 96.8 43.4 96.8 96.8-43.4 96.8-96.8 96.8m0-253.6c-86.4 0-156.8 70.3-156.8 156.8 0 86.4 70.4 156.8 156.8 156.8 86.5 0 156.8-70.4 156.8-156.8 0-86.5-70.3-156.8-156.8-156.8m410.4 1969c-53.4 0-96.8-43.4-96.8-96.8 0-53.3 43.4-96.8 96.8-96.8s96.8 43.5 96.8 96.8c0 53.4-43.4 96.8-96.8 96.8m0-253.6c-86.5 0-156.8 70.4-156.8 156.8 0 86.5 70.3 156.8 156.8 156.8s156.8-70.3 156.8-156.8c0-86.4-70.3-156.8-156.8-156.8m362.8-1598.6c-53.4 0-96.8-43.4-96.8-96.8s43.4-96.8 96.8-96.8c53.3 0 96.8 43.4 96.8 96.8s-43.5 96.8-96.8 96.8m0-253.6c-86.5 0-156.8 70.3-156.8 156.8 0 86.4 70.3 156.8 156.8 156.8 86.4 0 156.8-70.4 156.8-156.8 0-86.5-70.4-156.8-156.8-156.8m1725.8-640c-53.4 0-96.8-43.5-96.8-96.8 0-53.4 43.4-96.8 96.8-96.8s96.8 43.4 96.8 96.8c0 53.3-43.4 96.8-96.8 96.8m0-253.6c-86.5 0-156.8 70.3-156.8 156.8 0 86.4 70.3 156.8 156.8 156.8 86.4 0 156.8-70.4 156.8-156.8 0-86.5-70.4-156.8-156.8-156.8m-1481.5-644.3c-53.4 0-96.8-43.4-96.8-96.8s43.4-96.8 96.8-96.8 96.8 43.4 96.8 96.8-43.4 96.8-96.8 96.8m0-253.6c-86.4 0-156.8 70.3-156.8 156.8s70.4 156.8 156.8 156.8c86.5 0 156.8-70.3 156.8-156.8s-70.3-156.8-156.8-156.8m1762.4-181.7c-53.4 0-96.8-43.4-96.8-96.8s43.4-96.8 96.8-96.8 96.8 43.4 96.8 96.8-43.4 96.8-96.8 96.8m0-253.6c-86.5 0-156.8 70.4-156.8 156.8 0 86.5 70.3 156.8 156.8 156.8s156.8-70.3 156.8-156.8c0-86.4-70.3-156.8-156.8-156.8m-1675.7-171.8c-53.4 0-96.8-43.5-96.8-96.8 0-53.4 43.4-96.8 96.8-96.8 53.3 0 96.8 43.4 96.8 96.8 0 53.3-43.5 96.8-96.8 96.8m0-253.6c-86.5 0-156.8 70.3-156.8 156.8 0 86.4 70.3 156.8 156.8 156.8 86.4 0 156.8-70.4 156.8-156.8 0-86.5-70.4-156.8-156.8-156.8m594.9-435.1c-53.4 0-96.8-43.5-96.8-96.8 0-53.4 43.4-96.8 96.8-96.8s96.8 43.4 96.8 96.8c0 53.3-43.4 96.8-96.8 96.8m0-253.6c-86.4 0-156.8 70.3-156.8 156.8 0 86.4 70.4 156.8 156.8 156.8 86.5 0 156.8-70.4 156.8-156.8 0-86.5-70.3-156.8-156.8-156.8m-1663.6 1285c-53.4 0-96.8-43.4-96.8-96.8s43.4-96.8 96.8-96.8 96.8 43.4 96.8 96.8-43.4 96.8-96.8 96.8m0-253.6c-86.5 0-156.8 70.3-156.8 156.8 0 86.4 70.3 156.8 156.8 156.8s156.8-70.4 156.8-156.8c0-86.5-70.3-156.8-156.8-156.8m10-482.4c-53.4 0-96.8-43.5-96.8-96.8 0-53.4 43.4-96.8 96.8-96.8s96.8 43.4 96.8 96.8c0 53.3-43.4 96.8-96.8 96.8m0-253.6c-86.5 0-156.8 70.3-156.8 156.8 0 86.4 70.3 156.8 156.8 156.8s156.8-70.4 156.8-156.8c0-86.5-70.3-156.8-156.8-156.8" style="fill:#19262c;fill-opacity:1;fill-rule:nonzero;stroke:none" transform="matrix(.13333 0 0 -.13333 0 2666.667)"/><path d="M16146.4 1994.45c-52.4 0-94.9-42.52-94.9-94.85 0-52.32 42.5-94.85 94.9-94.85 52.3 0 94.8 42.53 94.8 94.85 0 52.33-42.5 94.85-94.8 94.85m0-248.49c-84.8 0-153.7 68.88-153.7 153.64 0 84.66 68.9 153.64 153.7 153.64 84.6 0 153.6-68.98 153.6-153.64 0-84.76-69-153.64-153.6-153.64" style="fill:#19262c;fill-opacity:1;fill-rule:nonzero;stroke:none" transform="matrix(.13608 0 0 -.13608 0 2666.667)"/><path d="M14550 5994.9c-53.4 0-96.8-43.4-96.8-96.8s43.4-96.8 96.8-96.8 96.8 43.4 96.8 96.8-43.4 96.8-96.8 96.8m0-253.6c-86.5 0-156.8 70.3-156.8 156.8 0 86.4 70.3 156.8 156.8 156.8s156.8-70.4 156.8-156.8c0-86.5-70.3-156.8-156.8-156.8" style="fill:#19262c;fill-opacity:1;fill-rule:nonzero;stroke:none" transform="matrix(.13333 0 0 -.13333 0 2666.667)"/><path d="M16152.5 6660c-50.2 0-91-40.81-91-91.02 0-50.22 40.8-91.03 91-91.03s91.1 40.81 91.1 91.03c0 50.21-40.9 91.02-91.1 91.02m0-238.48c-81.3 0-147.4 66.11-147.4 147.46 0 81.34 66.1 147.45 147.4 147.45s147.5-66.11 147.5-147.45c0-81.35-66.2-147.46-147.5-147.46" style="fill:#19262c;fill-opacity:1;fill-rule:nonzero;stroke:none" transform="matrix(.14179 0 0 -.14179 0 2666.667)"/><path d="M15642.2 6361.1c-53.4 0-96.8-43.4-96.8-96.8s43.4-96.8 96.8-96.8 96.8 43.4 96.8 96.8-43.4 96.8-96.8 96.8m0-253.6c-86.5 0-156.8 70.3-156.8 156.8 0 86.4 70.3 156.8 156.8 156.8s156.8-70.4 156.8-156.8c0-86.5-70.3-156.8-156.8-156.8" style="fill:#19262c;fill-opacity:1;fill-rule:nonzero;stroke:none" transform="matrix(.13333 0 0 -.13333 0 2666.667)"/><path d="M16145.5 4812.16c-52.6 0-95.3-42.76-95.3-95.37s42.7-95.37 95.3-95.37 95.4 42.76 95.4 95.37-42.8 95.37-95.4 95.37m0-249.85c-85.2 0-154.5 69.26-154.5 154.48 0 85.12 69.3 154.48 154.5 154.48s154.5-69.36 154.5-154.48c0-85.22-69.3-154.48-154.5-154.48" style="fill:#19262c;fill-opacity:1;fill-rule:nonzero;stroke:none" transform="matrix(.13533 0 0 -.13533 0 2666.667)"/><path d="M16149.9 5317.12c-51.2 0-92.7-41.66-92.7-92.7 0-51.13 41.5-92.7 92.7-92.7 51 0 92.6 41.57 92.6 92.7 0 51.04-41.6 92.7-92.6 92.7m0-242.85c-82.9 0-150.2 67.32-150.2 150.15 0 82.73 67.3 150.15 150.2 150.15 82.7 0 150.1-67.42 150.1-150.15 0-82.83-67.4-150.15-150.1-150.15" style="fill:#19262c;fill-opacity:1;fill-rule:nonzero;stroke:none" transform="matrix(.13924 0 0 -.13924 0 2666.667)"/><path d="M16156.9 5567.73c-48.7 0-88.3-39.6-88.3-88.32 0-48.63 39.6-88.32 88.3-88.32s88.4 39.69 88.4 88.32c0 48.72-39.7 88.32-88.4 88.32m0-231.38c-78.9 0-143 64.23-143 143.06 0 78.92 64.1 143.07 143 143.07s143.1-64.15 143.1-143.07c0-78.83-64.2-143.06-143.1-143.06" style="fill:#19262c;fill-opacity:1;fill-rule:nonzero;stroke:none" transform="matrix(.14613 0 0 -.14613 0 2666.667)"/><path d="M16166.6 5735.75c-45.5 0-82.4-37.02-82.4-82.38 0-45.45 36.9-82.39 82.4-82.39 45.4 0 82.3 36.94 82.3 82.39 0 45.36-36.9 82.38-82.3 82.38m0-215.83c-73.7 0-133.5 59.83-133.5 133.45 0 73.53 59.8 133.44 133.5 133.44 73.5 0 133.4-59.91 133.4-133.44 0-73.62-59.9-133.45-133.4-133.45" style="fill:#19262c;fill-opacity:1;fill-rule:nonzero;stroke:none" transform="matrix(.15666 0 0 -.15666 0 2666.667)"/><path d="M13784.1 5720c-53.3 0-96.8-43.4-96.8-96.8s43.5-96.8 96.8-96.8c53.4 0 96.8 43.4 96.8 96.8s-43.4 96.8-96.8 96.8m0-253.6c-86.4 0-156.8 70.3-156.8 156.8s70.4 156.8 156.8 156.8c86.5 0 156.8-70.3 156.8-156.8s-70.3-156.8-156.8-156.8m311.6 1417.3c-53.4 0-96.8-43.4-96.8-96.8 0-53.3 43.4-96.8 96.8-96.8s96.8 43.5 96.8 96.8c0 53.4-43.4 96.8-96.8 96.8m0-253.6c-86.5 0-156.8 70.4-156.8 156.8 0 86.5 70.3 156.8 156.8 156.8s156.8-70.3 156.8-156.8c0-86.4-70.3-156.8-156.8-156.8" style="fill:#19262c;fill-opacity:1;fill-rule:nonzero;stroke:none" transform="matrix(.13333 0 0 -.13333 0 2666.667)"/><path d="M16164 4323.14c-46.3 0-84-37.73-84-83.96 0-46.31 37.7-83.95 84-83.95s84 37.64 84 83.95c0 46.23-37.7 83.96-84 83.96m0-219.95c-75 0-136 60.97-136 135.99 0 74.94 61 136 136 136s136-61.06 136-136c0-75.02-61-135.99-136-135.99" style="fill:#19262c;fill-opacity:1;fill-rule:nonzero;stroke:none" transform="matrix(.15373 0 0 -.15373 0 2666.667)"/><path d="M16161.6 6713.42c-47.1 0-85.4-38.3-85.4-85.43s38.3-85.43 85.4-85.43 85.4 38.3 85.4 85.43-38.3 85.43-85.4 85.43m0-223.82c-76.3 0-138.4 62.05-138.4 138.39s62.1 138.38 138.4 138.38c76.4 0 138.4-62.04 138.4-138.38s-62-138.39-138.4-138.39" style="fill:#19262c;fill-opacity:1;fill-rule:nonzero;stroke:none" transform="matrix(.15108 0 0 -.15108 0 2666.667)"/><path d="M16153.6 3857.29c-49.8 0-90.3-40.51-90.3-90.37 0-49.85 40.5-90.37 90.3-90.37 49.9 0 90.4 40.52 90.4 90.37 0 49.86-40.5 90.37-90.4 90.37m0-236.75c-80.7 0-146.4 65.63-146.4 146.38 0 80.76 65.7 146.39 146.4 146.39 80.8 0 146.4-65.63 146.4-146.39 0-80.75-65.6-146.38-146.4-146.38" style="fill:#19262c;fill-opacity:1;fill-rule:nonzero;stroke:none" transform="matrix(.14282 0 0 -.14282 0 2666.667)"/><path d="M16159.9 4100.66c-47.7 0-86.5-38.77-86.5-86.48 0-47.61 38.8-86.47 86.5-86.47s86.5 38.86 86.5 86.47c0 47.71-38.8 86.48-86.5 86.48m0-226.56c-77.3 0-140.1 62.9-140.1 140.08 0 77.28 62.8 140.09 140.1 140.09 77.2 0 140.1-62.81 140.1-140.09 0-77.18-62.9-140.08-140.1-140.08" style="fill:#19262c;fill-opacity:1;fill-rule:nonzero;stroke:none" transform="matrix(.14925 0 0 -.14925 0 2666.667)"/><path d="M16162.5 3382c-46.9 0-85-38.16-85-84.91 0-46.85 38.1-84.92 85-84.92 46.7 0 84.9 38.07 84.9 84.92 0 46.75-38.2 84.91-84.9 84.91m0-222.46c-75.9 0-137.7 61.67-137.7 137.55 0 75.79 61.8 137.55 137.7 137.55 75.7 0 137.5-61.76 137.5-137.55 0-75.88-61.8-137.55-137.5-137.55" style="fill:#19262c;fill-opacity:1;fill-rule:nonzero;stroke:none" transform="matrix(.152 0 0 -.152 0 2666.667)"/><path d="M16165.5 1985.4c-45.8 0-83-37.23-83-83.03 0-45.81 37.2-83.03 83-83.03s83 37.22 83 83.03c0 45.8-37.2 83.03-83 83.03m0-217.53c-74.2 0-134.5 60.3-134.5 134.5 0 74.11 60.3 134.5 134.5 134.5s134.5-60.39 134.5-134.5c0-74.2-60.3-134.5-134.5-134.5" style="fill:#19262c;fill-opacity:1;fill-rule:nonzero;stroke:none" transform="matrix(.15544 0 0 -.15544 0 2666.667)"/><path d="M16168 3288.57c-44.9 0-81.5-36.53-81.5-81.48s36.6-81.49 81.5-81.49c45 0 81.5 36.54 81.5 81.49s-36.5 81.48-81.5 81.48m0-213.47c-72.8 0-132 59.18-132 131.99s59.2 131.99 132 131.99 132-59.18 132-131.99-59.2-131.99-132-131.99" style="fill:#19262c;fill-opacity:1;fill-rule:nonzero;stroke:none" transform="matrix(.1584 0 0 -.1584 0 2666.667)"/><path d="M16022.4 8620.8c-53.4 0-96.8-43.5-96.8-96.8 0-53.4 43.4-96.8 96.8-96.8s96.8 43.4 96.8 96.8c0 53.3-43.4 96.8-96.8 96.8m0-253.6c-86.5 0-156.8 70.3-156.8 156.8 0 86.4 70.3 156.8 156.8 156.8s156.8-70.4 156.8-156.8c0-86.5-70.3-156.8-156.8-156.8m-4966.1 532.1c-53.4 0-96.8-43.4-96.8-96.8s43.4-96.8 96.8-96.8 96.8 43.4 96.8 96.8-43.4 96.8-96.8 96.8m0-253.6c-86.5 0-156.8 70.3-156.8 156.8 0 86.4 70.3 156.8 156.8 156.8 86.4 0 156.8-70.4 156.8-156.8 0-86.5-70.4-156.8-156.8-156.8M10820 11780c-53.4 0-96.8-43.4-96.8-96.8s43.4-96.8 96.8-96.8 96.8 43.4 96.8 96.8-43.4 96.8-96.8 96.8m0-253.6c-86.5 0-156.8 70.3-156.8 156.8s70.3 156.8 156.8 156.8 156.8-70.3 156.8-156.8-70.3-156.8-156.8-156.8m1944.1 353.2c-53.3 0-96.8-43.4-96.8-96.8s43.5-96.8 96.8-96.8c53.4 0 96.8 43.4 96.8 96.8s-43.4 96.8-96.8 96.8m0-253.6c-86.4 0-156.8 70.3-156.8 156.8 0 86.4 70.4 156.8 156.8 156.8 86.5 0 156.8-70.4 156.8-156.8 0-86.5-70.3-156.8-156.8-156.8m0 2725.8c-53.3 0-96.8-43.4-96.8-96.8 0-53.3 43.5-96.8 96.8-96.8 53.4 0 96.8 43.5 96.8 96.8 0 53.4-43.4 96.8-96.8 96.8m0-253.6c-86.4 0-156.8 70.4-156.8 156.8 0 86.5 70.4 156.8 156.8 156.8 86.5 0 156.8-70.3 156.8-156.8 0-86.4-70.3-156.8-156.8-156.8m476.6-771.4c-53.3 0-96.8-43.4-96.8-96.8s43.5-96.8 96.8-96.8c53.4 0 96.8 43.4 96.8 96.8s-43.4 96.8-96.8 96.8m0-253.6c-86.4 0-156.8 70.3-156.8 156.8s70.4 156.8 156.8 156.8c86.5 0 156.8-70.3 156.8-156.8s-70.3-156.8-156.8-156.8m1030 2301.8c-53.3 0-96.8-43.4-96.8-96.8s43.5-96.8 96.8-96.8c53.4 0 96.8 43.4 96.8 96.8s-43.4 96.8-96.8 96.8m0-253.6c-86.4 0-156.8 70.3-156.8 156.8s70.4 156.8 156.8 156.8c86.5 0 156.8-70.3 156.8-156.8s-70.3-156.8-156.8-156.8m536.9-2519.6c-53.4 0-96.8-43.4-96.8-96.8s43.4-96.8 96.8-96.8 96.8 43.4 96.8 96.8-43.4 96.8-96.8 96.8m0-253.6c-86.5 0-156.8 70.3-156.8 156.8 0 86.4 70.3 156.8 156.8 156.8 86.4 0 156.8-70.4 156.8-156.8 0-86.5-70.4-156.8-156.8-156.8m785.6 507.4c-53.4 0-96.8-43.4-96.8-96.8s43.4-96.8 96.8-96.8 96.8 43.4 96.8 96.8-43.4 96.8-96.8 96.8m0-253.6c-86.5 0-156.8 70.4-156.8 156.8 0 86.5 70.3 156.8 156.8 156.8s156.8-70.3 156.8-156.8c0-86.4-70.3-156.8-156.8-156.8" style="fill:#19262c;fill-opacity:1;fill-rule:nonzero;stroke:none" transform="matrix(.13333 0 0 -.13333 0 2666.667)"/><path d="M16149.5 11866.9c-51.2 0-92.8-41.7-92.8-92.9s41.6-92.9 92.8-92.9 92.9 41.7 92.9 92.9-41.7 92.9-92.9 92.9m0-243.4c-83 0-150.4 67.5-150.4 150.5 0 82.9 67.4 150.4 150.4 150.4 82.9 0 150.5-67.5 150.5-150.4 0-83-67.6-150.5-150.5-150.5" style="fill:#19262c;fill-opacity:1;fill-rule:nonzero;stroke:none" transform="matrix(.13895 0 0 -.13895 0 2666.667)"/><path d="M16163.2 11026c-46.5 0-84.5-37.9-84.5-84.5s38-84.5 84.5-84.5c46.6 0 84.4 37.9 84.4 84.5s-37.8 84.5-84.4 84.5m0-221.3c-75.4 0-136.8 61.4-136.8 136.8 0 75.5 61.4 136.8 136.8 136.8 75.5 0 136.8-61.3 136.8-136.8 0-75.4-61.3-136.8-136.8-136.8" style="fill:#19262c;fill-opacity:1;fill-rule:nonzero;stroke:none" transform="matrix(.1528 0 0 -.1528 0 2666.667)"/><path d="M14934.4 13605.9c-53.4 0-96.8-43.5-96.8-96.8 0-53.4 43.4-96.8 96.8-96.8s96.8 43.4 96.8 96.8c0 53.3-43.4 96.8-96.8 96.8m0-253.6c-86.5 0-156.8 70.3-156.8 156.8 0 86.4 70.3 156.8 156.8 156.8 86.4 0 156.8-70.4 156.8-156.8 0-86.5-70.4-156.8-156.8-156.8m-585 758.2c-53.4 0-96.8-43.4-96.8-96.8s43.4-96.8 96.8-96.8c53.3 0 96.8 43.4 96.8 96.8s-43.5 96.8-96.8 96.8m0-253.6c-86.5 0-156.8 70.3-156.8 156.8s70.3 156.8 156.8 156.8c86.4 0 156.8-70.3 156.8-156.8s-70.4-156.8-156.8-156.8m727.3 568.9c-53.4 0-96.8-43.5-96.8-96.9 0-53.3 43.4-96.7 96.8-96.7 53.3 0 96.8 43.4 96.8 96.7 0 53.4-43.5 96.9-96.8 96.9m0-253.6c-86.5 0-156.8 70.3-156.8 156.7 0 86.5 70.3 156.9 156.8 156.9 86.4 0 156.8-70.4 156.8-156.9 0-86.4-70.4-156.7-156.8-156.7" style="fill:#19262c;fill-opacity:1;fill-rule:nonzero;stroke:none" transform="matrix(.13333 0 0 -.13333 0 2666.667)"/><path d="M16159.8 13916.4c-47.8 0-86.6-38.8-86.6-86.5 0-47.8 38.8-86.6 86.6-86.6 47.7 0 86.5 38.8 86.5 86.6 0 47.7-38.8 86.5-86.5 86.5m0-226.8c-77.4 0-140.3 63-140.3 140.3s62.9 140.2 140.3 140.2c77.2 0 140.2-62.9 140.2-140.2s-63-140.3-140.2-140.3" style="fill:#19262c;fill-opacity:1;fill-rule:nonzero;stroke:none" transform="matrix(.14909 0 0 -.14909 0 2666.667)"/><path d="M16158.4 13564c-48.2 0-87.4-39.2-87.4-87.4s39.2-87.4 87.4-87.4 87.4 39.2 87.4 87.4-39.2 87.4-87.4 87.4m0-229c-78.1 0-141.6 63.5-141.6 141.6s63.5 141.6 141.6 141.6 141.6-63.5 141.6-141.6-63.5-141.6-141.6-141.6" style="fill:#19262c;fill-opacity:1;fill-rule:nonzero;stroke:none" transform="matrix(.14765 0 0 -.14765 0 2666.667)"/><path d="M16167 12819.5c-45.3 0-82.2-36.8-82.2-82.1s36.9-82.1 82.2-82.1 82.1 36.8 82.1 82.1-36.8 82.1-82.1 82.1m0-215.1c-73.4 0-133.1 59.6-133.1 133s59.7 133 133.1 133 133-59.6 133-133-59.6-133-133-133" style="fill:#19262c;fill-opacity:1;fill-rule:nonzero;stroke:none" transform="matrix(.15716 0 0 -.15716 0 2666.667)"/><path d="M16146.1 13727.4c-52.5 0-95.1-42.6-95.1-95s42.6-95 95.1-95c52.4 0 95 42.6 95 95s-42.6 95-95 95m0-248.9c-85 0-154 69-154 153.9s69 153.9 154 153.9c84.9 0 153.9-69 153.9-153.9s-69-153.9-153.9-153.9" style="fill:#19262c;fill-opacity:1;fill-rule:nonzero;stroke:none" transform="matrix(.13582 0 0 -.13582 0 2666.667)"/><path d="M16154.6 12243.4c-49.6 0-89.8-40.3-89.8-89.8s40.2-89.8 89.8-89.8c49.5 0 89.7 40.3 89.7 89.8s-40.2 89.8-89.7 89.8m0-235.3c-80.3 0-145.5 65.3-145.5 145.5s65.2 145.4 145.5 145.4c80.2 0 145.4-65.2 145.4-145.4s-65.2-145.5-145.4-145.5" style="fill:#19262c;fill-opacity:1;fill-rule:nonzero;stroke:none" transform="matrix(.14375 0 0 -.14375 0 2666.667)"/><path d="M16160.6 12398.8c-47.5 0-86.1-38.6-86.1-86 0-47.5 38.6-86.1 86.1-86.1s86.1 38.6 86.1 86.1c0 47.4-38.6 86-86.1 86m0-225.4c-76.9 0-139.4 62.5-139.4 139.4s62.5 139.4 139.4 139.4 139.4-62.5 139.4-139.4-62.5-139.4-139.4-139.4" style="fill:#19262c;fill-opacity:1;fill-rule:nonzero;stroke:none" transform="matrix(.14998 0 0 -.14998 0 2666.667)"/><path d="M13970.8 12495.5c-53.3 0-96.8-43.4-96.8-96.8s43.5-96.8 96.8-96.8c53.4 0 96.8 43.4 96.8 96.8s-43.4 96.8-96.8 96.8m0-253.6c-86.4 0-156.8 70.3-156.8 156.8s70.4 156.8 156.8 156.8c86.5 0 156.8-70.3 156.8-156.8s-70.3-156.8-156.8-156.8m-2845 3500.5c-53.3 0-96.7-43.4-96.7-96.8s43.4-96.8 96.7-96.8c53.4 0 96.8 43.4 96.8 96.8s-43.4 96.8-96.8 96.8m0-253.6c-86.4 0-156.7 70.4-156.7 156.8 0 86.5 70.3 156.8 156.7 156.8 86.5 0 156.8-70.3 156.8-156.8 0-86.4-70.3-156.8-156.8-156.8" style="fill:#19262c;fill-opacity:1;fill-rule:nonzero;stroke:none" transform="matrix(.13333 0 0 -.13333 0 2666.667)"/><path d="M9529.82 16243.7c-50.11 0-90.84-40.8-90.84-90.8 0-50.1 40.73-90.9 90.84-90.9 50.02 0 90.84 40.8 90.84 90.9 0 50-40.82 90.8-90.84 90.8m0-238c-81.17 0-147.18 66-147.18 147.2 0 81.1 66.01 147.1 147.18 147.1 81.08 0 147.15-66 147.15-147.1 0-81.2-66.07-147.2-147.15-147.2" style="fill:#19262c;fill-opacity:1;fill-rule:nonzero;stroke:none" transform="matrix(.14208 0 0 -.14208 0 2666.667)"/><path d="M8337.46 16242.4c-51.21 0-92.86-41.6-92.86-92.8s41.65-92.9 92.86-92.9 92.86 41.7 92.86 92.9-41.65 92.8-92.86 92.8m0-243.2c-82.94 0-150.42 67.4-150.42 150.4 0 82.9 67.48 150.4 150.42 150.4s150.42-67.5 150.42-150.4c0-83-67.48-150.4-150.42-150.4" style="fill:#19262c;fill-opacity:1;fill-rule:nonzero;stroke:none" transform="matrix(.13899 0 0 -.13899 0 2666.667)"/><path d="M7733.29 16244.3c-49.52 0-89.8-40.3-89.8-89.8s40.28-89.8 89.8-89.8c49.53 0 89.82 40.3 89.82 89.8s-40.29 89.8-89.82 89.8m0-235.3c-80.22 0-145.47 65.3-145.47 145.5s65.25 145.5 145.47 145.5 145.49-65.3 145.49-145.5-65.27-145.5-145.49-145.5" style="fill:#19262c;fill-opacity:1;fill-rule:nonzero;stroke:none" transform="matrix(.1437 0 0 -.1437 0 2666.667)"/><path d="M10246.8 16242.1c-51.5 0-93.3-41.8-93.3-93.3s41.8-93.3 93.3-93.3c51.4 0 93.3 41.8 93.3 93.3s-41.9 93.3-93.3 93.3m0-244.5c-83.4 0-151.2 67.8-151.2 151.2s67.8 151.2 151.2 151.2c83.3 0 151.2-67.8 151.2-151.2s-67.9-151.2-151.2-151.2" style="fill:#19262c;fill-opacity:1;fill-rule:nonzero;stroke:none" transform="matrix(.13828 0 0 -.13828 0 2666.667)"/><path d="M10769.5 16242.6c-51 0-92.6-41.6-92.6-92.7 0-51 41.6-92.6 92.6-92.6 51.2 0 92.8 41.6 92.8 92.6 0 51.1-41.6 92.7-92.8 92.7m0-242.7c-82.6 0-150 67.3-150 150 0 82.8 67.4 150.1 150 150.1 82.8 0 150.2-67.3 150.2-150.1 0-82.7-67.4-150-150.2-150" style="fill:#19262c;fill-opacity:1;fill-rule:nonzero;stroke:none" transform="matrix(.13931 0 0 -.13931 0 2666.667)"/><path d="M10080.8 16245.2c-48.7 0-88.44-39.7-88.44-88.4 0-48.8 39.74-88.4 88.44-88.4 48.8 0 88.4 39.6 88.4 88.4 0 48.7-39.6 88.4-88.4 88.4m0-231.6c-78.9 0-143.24 64.2-143.24 143.2s64.34 143.2 143.24 143.2c79 0 143.2-64.2 143.2-143.2s-64.2-143.2-143.2-143.2" style="fill:#19262c;fill-opacity:1;fill-rule:nonzero;stroke:none" transform="matrix(.14598 0 0 -.14598 0 2666.667)"/><path d="M11317.1 16244.8c-49.2 0-89.1-39.9-89.1-89s39.9-89.1 89.1-89.1c49.1 0 89 40 89 89.1s-39.9 89-89 89m0-233.3c-79.6 0-144.3 64.7-144.3 144.3 0 79.5 64.7 144.2 144.3 144.2 79.4 0 144.2-64.7 144.2-144.2 0-79.6-64.8-144.3-144.2-144.3" style="fill:#19262c;fill-opacity:1;fill-rule:nonzero;stroke:none" transform="matrix(.14494 0 0 -.14494 0 2666.667)"/><path d="M11985.7 16241.2c-52.2 0-94.8-42.5-94.8-94.8 0-52.4 42.6-94.9 94.8-94.9 52.3 0 94.9 42.5 94.9 94.9 0 52.3-42.6 94.8-94.9 94.8m0-248.5c-84.6 0-153.6 68.9-153.6 153.7 0 84.7 69 153.6 153.6 153.6 84.8 0 153.7-68.9 153.7-153.6 0-84.8-68.9-153.7-153.7-153.7" style="fill:#19262c;fill-opacity:1;fill-rule:nonzero;stroke:none" transform="matrix(.13607 0 0 -.13607 0 2666.667)"/><path d="M12529.2 16242.6c-51.1 0-92.7-41.6-92.7-92.7s41.6-92.7 92.7-92.7 92.7 41.6 92.7 92.7-41.6 92.7-92.7 92.7m0-242.8c-82.8 0-150.1 67.3-150.1 150.1s67.3 150.1 150.1 150.1 150.1-67.3 150.1-150.1-67.3-150.1-150.1-150.1" style="fill:#19262c;fill-opacity:1;fill-rule:nonzero;stroke:none" transform="matrix(.13928 0 0 -.13928 0 2666.667)"/><path d="M13882.8 16243.7c-50.1 0-90.8-40.8-90.8-90.8 0-50.1 40.7-90.9 90.8-90.9s90.8 40.8 90.8 90.9c0 50-40.7 90.8-90.8 90.8m0-238c-81.2 0-147.1 66-147.1 147.2 0 81.1 65.9 147.1 147.1 147.1s147.1-66 147.1-147.1c0-81.2-65.9-147.2-147.1-147.2" style="fill:#19262c;fill-opacity:1;fill-rule:nonzero;stroke:none" transform="matrix(.14209 0 0 -.14209 0 2666.667)"/><path d="M13367.2 16245.9c-48.1 0-87.3-39.1-87.3-87.2s39.2-87.3 87.3-87.3 87.2 39.2 87.2 87.3-39.1 87.2-87.2 87.2m0-228.6c-77.9 0-141.4 63.4-141.4 141.4 0 77.9 63.5 141.3 141.4 141.3s141.3-63.4 141.3-141.3c0-78-63.4-141.4-141.3-141.4" style="fill:#19262c;fill-opacity:1;fill-rule:nonzero;stroke:none" transform="matrix(.14793 0 0 -.14793 0 2666.667)"/><path d="M11318.5 16247.1c-47.1 0-85.3-38.3-85.3-85.4 0-47 38.2-85.3 85.3-85.3 47 0 85.4 38.3 85.4 85.3 0 47.1-38.4 85.4-85.4 85.4m0-223.6c-76.3 0-138.2 62-138.2 138.2 0 76.3 61.9 138.3 138.2 138.3 76.2 0 138.3-62 138.3-138.3 0-76.2-62.1-138.2-138.3-138.2" style="fill:#19262c;fill-opacity:1;fill-rule:nonzero;stroke:none" transform="matrix(.15122 0 0 -.15122 0 2666.667)"/><path d="M13016.7 16248.1c-46.1 0-83.8-37.6-83.8-83.7 0-46.2 37.7-83.8 83.8-83.8 46.2 0 83.7 37.6 83.7 83.8 0 46.1-37.5 83.7-83.7 83.7m0-219.4c-74.8 0-135.7 60.9-135.7 135.7s60.9 135.6 135.7 135.6 135.6-60.8 135.6-135.6-60.8-135.7-135.6-135.7" style="fill:#19262c;fill-opacity:1;fill-rule:nonzero;stroke:none" transform="matrix(.15413 0 0 -.15413 0 2666.667)"/><path d="M12673.9 16249.7c-44.7 0-81.1-36.4-81.1-81.1s36.4-81.1 81.1-81.1c44.8 0 81.1 36.4 81.1 81.1s-36.3 81.1-81.1 81.1m0-212.4c-72.4 0-131.3 58.9-131.3 131.3 0 72.5 58.9 131.4 131.3 131.4 72.5 0 131.4-58.9 131.4-131.4 0-72.4-58.9-131.3-131.4-131.3" style="fill:#19262c;fill-opacity:1;fill-rule:nonzero;stroke:none" transform="matrix(.15914 0 0 -.15914 0 2666.667)"/><path d="M10983.9 16248.8c-45.5 0-82.5-37-82.5-82.5s37-82.6 82.5-82.6 82.6 37.1 82.6 82.6-37.1 82.5-82.6 82.5m0-216.2c-73.7 0-133.7 60-133.7 133.7s60 133.7 133.7 133.7 133.7-60 133.7-133.7-60-133.7-133.7-133.7" style="fill:#19262c;fill-opacity:1;fill-rule:nonzero;stroke:none" transform="matrix(.15636 0 0 -.15636 0 2666.667)"/><path d="M9467.57 16250.6c-43.98 0-79.73-35.8-79.73-79.7 0-44 35.75-79.8 79.73-79.8 43.99 0 79.73 35.8 79.73 79.8 0 43.9-35.74 79.7-79.73 79.7m0-208.9c-71.16 0-129.14 57.9-129.14 129.2 0 71.2 57.98 129.1 129.14 129.1 71.25 0 129.15-57.9 129.15-129.1 0-71.3-57.9-129.2-129.15-129.2" style="fill:#19262c;fill-opacity:1;fill-rule:nonzero;stroke:none" transform="matrix(.16188 0 0 -.16188 0 2666.667)"/><path d="M14403.3 16250.1c-44.4 0-80.4-36.1-80.4-80.4 0-44.4 36-80.5 80.4-80.5s80.5 36.1 80.5 80.5c0 44.3-36.1 80.4-80.5 80.4m0-210.8c-71.9 0-130.3 58.5-130.3 130.4 0 71.8 58.4 130.3 130.3 130.3 71.8 0 130.4-58.5 130.4-130.3 0-71.9-58.6-130.4-130.4-130.4" style="fill:#19262c;fill-opacity:1;fill-rule:nonzero;stroke:none" transform="matrix(.16041 0 0 -.16041 0 2666.667)"/><path d="M9807.9 15552.6c-53.38 0-96.8-43.4-96.8-96.8s43.42-96.8 96.8-96.8c53.37 0 96.8 43.4 96.8 96.8s-43.43 96.8-96.8 96.8m0-253.6c-86.46 0-156.8 70.3-156.8 156.8s70.34 156.8 156.8 156.8 156.8-70.3 156.8-156.8-70.34-156.8-156.8-156.8m-1170.89 380.4c-53.38 0-96.8-43.4-96.8-96.8s43.42-96.8 96.8-96.8c53.37 0 96.79 43.4 96.79 96.8s-43.42 96.8-96.79 96.8m0-253.6c-86.46 0-156.8 70.3-156.8 156.8s70.34 156.8 156.8 156.8 156.79-70.3 156.79-156.8-70.33-156.8-156.79-156.8m3111.29-246.8c-53.4 0-96.8-43.4-96.8-96.8 0-53.3 43.4-96.8 96.8-96.8s96.8 43.5 96.8 96.8c0 53.4-43.4 96.8-96.8 96.8m0-253.6c-86.4 0-156.8 70.4-156.8 156.8 0 86.5 70.4 156.8 156.8 156.8 86.5 0 156.8-70.3 156.8-156.8 0-86.4-70.3-156.8-156.8-156.8m-1231.9-827.2c-53.4 0-96.8-43.4-96.8-96.8 0-53.3 43.4-96.8 96.8-96.8 53.3 0 96.8 43.5 96.8 96.8 0 53.4-43.5 96.8-96.8 96.8m0-253.6c-86.5 0-156.8 70.4-156.8 156.8 0 86.5 70.3 156.8 156.8 156.8 86.4 0 156.8-70.3 156.8-156.8 0-86.4-70.4-156.8-156.8-156.8m-114.4-609.8c-53.4 0-96.8-43.4-96.8-96.8 0-53.3 43.4-96.8 96.8-96.8s96.8 43.5 96.8 96.8c0 53.4-43.4 96.8-96.8 96.8m0-253.6c-86.5 0-156.8 70.4-156.8 156.8 0 86.5 70.3 156.8 156.8 156.8s156.8-70.3 156.8-156.8c0-86.4-70.3-156.8-156.8-156.8m-1038.93 634.7c-53.38 0-96.8-43.4-96.8-96.7 0-53.4 43.42-96.8 96.8-96.8s96.8 43.4 96.8 96.8c0 53.3-43.42 96.7-96.8 96.7m0-253.5c-86.46 0-156.8 70.3-156.8 156.8 0 86.4 70.34 156.7 156.8 156.7s156.8-70.3 156.8-156.7c0-86.5-70.34-156.8-156.8-156.8m-935.37-243.8c-53.38 0-96.8-43.4-96.8-96.8s43.42-96.8 96.8-96.8c53.37 0 96.8 43.4 96.8 96.8s-43.43 96.8-96.8 96.8m0-253.6c-86.46 0-156.8 70.4-156.8 156.8 0 86.5 70.34 156.8 156.8 156.8s156.8-70.3 156.8-156.8c0-86.4-70.34-156.8-156.8-156.8m3983.1-511.6c-53.4 0-96.8-43.4-96.8-96.8 0-53.3 43.4-96.8 96.8-96.8s96.8 43.5 96.8 96.8c0 53.4-43.4 96.8-96.8 96.8m0-253.6c-86.5 0-156.8 70.4-156.8 156.8 0 86.5 70.3 156.8 156.8 156.8 86.4 0 156.8-70.3 156.8-156.8 0-86.4-70.4-156.8-156.8-156.8" style="fill:#19262c;fill-opacity:1;fill-rule:nonzero;stroke:none" transform="matrix(.13333 0 0 -.13333 0 2666.667)"/><path d="M15399.2 16240.4c-53 0-96.1-43.1-96.1-96.1 0-52.9 43.1-96 96.1-96s96 43.1 96 96c0 53-43 96.1-96 96.1m0-251.7c-85.8 0-155.7 69.8-155.7 155.6 0 85.9 69.9 155.7 155.7 155.7s155.6-69.8 155.6-155.7c0-85.8-69.8-155.6-155.6-155.6" style="fill:#19262c;fill-opacity:1;fill-rule:nonzero;stroke:none" transform="matrix(.13431 0 0 -.13431 0 2666.667)"/><path d="M15025.2 16242.8c-50.8 0-92.2-41.4-92.2-92.2 0-50.9 41.4-92.3 92.2-92.3 50.9 0 92.3 41.4 92.3 92.3 0 50.8-41.4 92.2-92.3 92.2m0-241.7c-82.3 0-149.4 67.1-149.4 149.5s67.1 149.4 149.4 149.4c82.5 0 149.5-67 149.5-149.4s-67-149.5-149.5-149.5" style="fill:#19262c;fill-opacity:1;fill-rule:nonzero;stroke:none" transform="matrix(.1399 0 0 -.1399 0 2666.667)"/><path d="M15615.4 16245.4c-48.6 0-88.1-39.5-88.1-88 0-48.6 39.5-88.1 88.1-88.1s88 39.5 88 88.1c0 48.5-39.4 88-88 88m0-230.7c-78.6 0-142.7 64-142.7 142.7 0 78.6 64.1 142.6 142.7 142.6 78.7 0 142.6-64 142.6-142.6 0-78.7-63.9-142.7-142.6-142.7" style="fill:#19262c;fill-opacity:1;fill-rule:nonzero;stroke:none" transform="matrix(.14657 0 0 -.14657 0 2666.667)"/><path d="M14745.3 16248.6c-45.8 0-83-37.3-83-83 0-45.8 37.2-83 83-83 45.7 0 82.9 37.2 82.9 83 0 45.7-37.2 83-82.9 83m0-217.4c-74.2 0-134.5 60.3-134.5 134.4s60.3 134.4 134.5 134.4c74 0 134.4-60.3 134.4-134.4s-60.4-134.4-134.4-134.4" style="fill:#19262c;fill-opacity:1;fill-rule:nonzero;stroke:none" transform="matrix(.15555 0 0 -.15555 0 2666.667)"/><path d="M9193.94 16247.5c-46.74 0-84.73-38-84.73-84.8 0-46.7 37.99-84.7 84.73-84.7 46.75 0 84.74 38 84.74 84.7 0 46.8-37.99 84.8-84.74 84.8m0-222c-75.72 0-137.25 61.6-137.25 137.2 0 75.7 61.53 137.3 137.25 137.3s137.26-61.6 137.26-137.3c0-75.6-61.54-137.2-137.26-137.2" style="fill:#19262c;fill-opacity:1;fill-rule:nonzero;stroke:none" transform="matrix(.15232 0 0 -.15232 0 2666.667)"/><path d="M16149.2 15025.7c-51.3 0-93.1-41.8-93.1-93.1s41.8-93.1 93.1-93.1c51.4 0 93.1 41.8 93.1 93.1s-41.7 93.1-93.1 93.1m0-243.9c-83.1 0-150.8 67.7-150.8 150.8 0 83.2 67.7 150.8 150.8 150.8 83.2 0 150.8-67.6 150.8-150.8 0-83.1-67.6-150.8-150.8-150.8" style="fill:#19262c;fill-opacity:1;fill-rule:nonzero;stroke:none" transform="matrix(.13866 0 0 -.13866 0 2666.667)"/><path d="M16162.9 14273.5c-46.6 0-84.6-37.9-84.6-84.6s38-84.6 84.6-84.6c46.7 0 84.6 37.9 84.6 84.6s-37.9 84.6-84.6 84.6m0-221.7c-75.5 0-137.1 61.5-137.1 137.1s61.6 137.1 137.1 137.1c75.6 0 137.1-61.5 137.1-137.1s-61.5-137.1-137.1-137.1" style="fill:#19262c;fill-opacity:1;fill-rule:nonzero;stroke:none" transform="matrix(.15251 0 0 -.15251 0 2666.667)"/><path d="M13633.6 11237.6c-53.4 0-96.8-43.5-96.8-96.8 0-53.4 43.4-96.9 96.8-96.9s96.8 43.5 96.8 96.9c0 53.3-43.4 96.8-96.8 96.8m0-253.7c-86.5 0-156.8 70.4-156.8 156.9 0 86.4 70.3 156.8 156.8 156.8s156.8-70.4 156.8-156.8c0-86.5-70.3-156.9-156.8-156.9m114.8 895.7c-53.3 0-96.8-43.4-96.8-96.8s43.5-96.8 96.8-96.8c53.4 0 96.8 43.4 96.8 96.8s-43.4 96.8-96.8 96.8m0-253.6c-86.4 0-156.8 70.3-156.8 156.8 0 86.4 70.4 156.8 156.8 156.8 86.5 0 156.8-70.4 156.8-156.8 0-86.5-70.3-156.8-156.8-156.8" style="fill:#19262c;fill-opacity:1;fill-rule:nonzero;stroke:none" transform="matrix(.13333 0 0 -.13333 0 2666.667)"/><path d="M8842.31 9624.67h-48.9v1138.93l-1409.88 1409.9v4362h48.9v-4341.7l1409.88-1409.9z" style="fill:#19262c;fill-opacity:1;fill-rule:nonzero;stroke:none" transform="matrix(.1636 0 0 -.1636 0 2666.667)"/><path d="M10238.2-739.297h-60V3478.7L8078 5578.9v3672.8h60V5603.8l2100.2-2100.2zM3229.94 9475.3H-712.883v60H3205.09l2277.44 2277.5H8108v-60H5507.38z" style="fill:#19262c;fill-opacity:1;fill-rule:nonzero;stroke:none" transform="matrix(.13333 0 0 -.13333 0 2666.667)"/><path d="M8773.84 9734.6H6478.65l-696.13 696.1h-641.37v60h666.22l696.14-696.1h2245.47l549.53 549.5H13380v-60H9323.36zm1340.86-5711.4L8433.48 5704.4v1472.3l521.23 521.2v1553.8h60V7673l-521.23-521.2V5729.2l1663.62-1663.6z" style="fill:#19262c;fill-opacity:1;fill-rule:nonzero;stroke:none" transform="matrix(.13333 0 0 -.13333 0 2666.667)"/><path d="M10423.3 9705.82h-48.9V10291l-415.6 415.6v965.6l7.17 7.2 1245.93 1245.9h1760.3l3627.5 3627.5 34.6-34.6-3641.9-3641.8h-1760.3l-1224.4-1224.5v-925.1l415.6-415.6z" style="fill:#19262c;fill-opacity:1;fill-rule:nonzero;stroke:none" transform="matrix(.1636 0 0 -.1636 0 2666.667)"/><path d="m-691.672-991.199-42.422 42.402L2658.56 2443.9v2518.5l8.79 8.8 2669.51 2669.5H6370v-60H5361.71L2718.56 4937.6V2419z" style="fill:#19262c;fill-opacity:1;fill-rule:nonzero;stroke:none" transform="matrix(.13333 0 0 -.13333 0 2666.667)"/><path d="M16600.6-449.227 12501.5 3649.81H10496L9176.57 4969.22v1223.39l-731.95 732.04 34.56 34.56 746.29-746.3V4989.43l1290.73-1290.72h2005.5l4113.4-4113.379zM5533.57 10757.5H3991.32l-7.16 7.1-1359.99 1360V13673l-3122.282 3122.3 34.572 34.6 3136.61-3136.6v-1548.4l1338.51-1338.5h1521.99z" style="fill:#19262c;fill-opacity:1;fill-rule:nonzero;stroke:none" transform="matrix(.1636 0 0 -.1636 0 2666.667)"/><path d="M10540-739.297h-60V3582.4l291.1 291.1L8836.56 5808v1002h60v-977.1l1959.34-1959.4-315.9-315.9z" style="fill:#19262c;fill-opacity:1;fill-rule:nonzero;stroke:none" transform="matrix(.13333 0 0 -.13333 0 2666.667)"/><path d="m14074.5-356.598-936.2 936.2h-2354.8V3320.4h60V639.602h2319.7l953.7-953.801zM9329.69 5980h-60v2992.4l560.41 560.4h3957.5l1164.8 1164.8 42.4-42.4-1182.4-1182.4H9854.96l-525.27-525.2zM3542.44 9357.3l-42.42 42.4 1931.48 1931.5h2917.67l556.66 556.7h750.09v-60h-725.24l-556.65-556.7H5456.36zm-2078.68 524.5H-712.883v60H1438.91l533.52 533.5H3313.2v-60H1997.29z" style="fill:#19262c;fill-opacity:1;fill-rule:nonzero;stroke:none" transform="matrix(.13333 0 0 -.13333 0 2666.667)"/><path d="M6618.15 8337.94H5422.28l-528.29 528.29 34.57 34.57 513.97-513.96H6597.9l288.19 288.19 195.58-195.59h229.26l200.06 200.06h3783.51l767.5 767.52h4400.3v-48.9h-4380l-767.6-767.52H7531.24l-200.05-200.06h-269.77l-175.33 175.34z" style="fill:#19262c;fill-opacity:1;fill-rule:nonzero;stroke:none" transform="matrix(.1636 0 0 -.1636 0 2666.667)"/><path d="M8782.43 10743.2H7043.6v60h1713.97l367.53 367.6h4381.7v-60H9149.96zm3522.17 1559.6-586.3 586.2v1637.3l8.8 8.8 1758 1758h1900.5v-60h-1875.7l-1731.6-1731.7v-1587.5l568.7-568.7z" style="fill:#19262c;fill-opacity:1;fill-rule:nonzero;stroke:none" transform="matrix(.13333 0 0 -.13333 0 2666.667)"/><path d="M13342.9 11454h-1284.5l-962.6 962.6v3102.2h60v-3077.4l927.4-927.4h1199.7v1154.8l-548.8 548.8v921.3h60v-896.5l548.8-548.8zM1312.59 10303.9H-712.883v60H1287.73l589.42 589.4h1961.63l1248.23 1248.2h5048.89v-60H5111.87l-1248.23-1248.2H1902zm2093.72-1637.6L2937.57 9135H-712.883v60H2962.43l443.88-443.9 333.5 333.5h617.76l794.97 795H5690v-60h-512.6l-794.97-795h-617.77z" style="fill:#19262c;fill-opacity:1;fill-rule:nonzero;stroke:none" transform="matrix(.13333 0 0 -.13333 0 2666.667)"/><path d="m11753.8 7753.42-34.5 34.64 1016.5 1016.57h3726.5v-48.9h-3706.2zm4708.5-652.81h-2918.5l-393 392.99-338.3-338.23H9983.75v48.9h2808.45l358.6 358.52 413.2-413.28h2898.3z" style="fill:#19262c;fill-opacity:1;fill-rule:nonzero;stroke:none" transform="matrix(.1636 0 0 -.1636 0 2666.667)"/><path d="m12375.5 7990.01-34.5 34.56 457.1 457.15h489.3l237.4-237.43 202.3 202.28h2735.2v-48.9h-2714.9l-222.6-222.54-257.6 257.69h-448.9zm-3279.77-764.87-34.56 34.55 331.05 331.14h688.68l147.3-147.35h2212.1l296.7 296.66h1437l364.6 364.63 333.4-333.5h1590.3v-48.9h-1610.5l-313.2 313.2-344.4-344.33h-1437l-296.6-296.66H10208l-147.3 147.35h-648.18z" style="fill:#19262c;fill-opacity:1;fill-rule:nonzero;stroke:none" transform="matrix(.1636 0 0 -.1636 0 2666.667)"/><path d="M10318.5 13823h-58.7v1935.7l541.3 541.3 722.7-722.8v-701.8h-58.7v677.5l-664 664.1-482.6-482.6z" style="fill:#19262c;fill-opacity:1;fill-rule:nonzero;stroke:none" transform="matrix(.13628 0 0 -.13628 0 2666.667)"/><path d="M10815.6 10885.8h-48.9v1222.1l613.4 613.3h1772.5l1173.6 1173.5h499.1v352.4l1724.2 1724.2 34.5-34.5-1709.8-1709.9v-381.1h-527.8l-1173.6-1173.5h-1772.5l-584.7-584.7zm2957.9 1824.6-34.6 34.6 749.8 749.8h634.2l1477.7 1477.7 34.5-34.5-1492-1492.1H14509zm-1945.3-3131.88h-532v48.9h511.8l516.9 516.98h929.4l465-464.93h2824.5v-48.9h-2844.7l-465 464.93h-888.9z" style="fill:#19262c;fill-opacity:1;fill-rule:nonzero;stroke:none" transform="matrix(.1636 0 0 -.1636 0 2666.667)"/><path d="M14358.9 12010.2h-755.3v2645.6l553.7 553.6 42.4-42.4-536.1-536.1v-2560.7h670.4l368.1 368.2 42.4-42.5z" style="fill:#19262c;fill-opacity:1;fill-rule:nonzero;stroke:none" transform="matrix(.13333 0 0 -.13333 0 2666.667)"/><path d="M12418.6 11091.8h-53.2v1859.7l600.3 600.3h1488.6l160.4 160.3 283.9-283.8 994.2 994.2h407.2v-53.2h-385.2L14898.6 13353l-283.9 283.8-138.3-138.3h-1488.7l-569.1-569z" style="fill:#19262c;fill-opacity:1;fill-rule:nonzero;stroke:none" transform="matrix(.15032 0 0 -.15032 0 2666.667)"/><path d="M13564.1 10985.4h-1276.6v48.9h1256.4l794.5 794.5h2357.2v-48.9h-2337z" style="fill:#19262c;fill-opacity:1;fill-rule:nonzero;stroke:none" transform="matrix(.1636 0 0 -.1636 0 2666.667)"/><path d="M16300 12324.6h-2550.9l-351.6 351.7 443.2 443.2h1544.8v-56.6h-1521.4l-386.6-386.6 295.1-295.1H16300z" style="fill:#19262c;fill-opacity:1;fill-rule:nonzero;stroke:none" transform="matrix(.14143 0 0 -.14143 0 2666.667)"/><path d="m11775.7 11472.8-34.6 34.5 495.6 495.6h1404.4l835.1 835.1h605.9l418.8 418.8v231.4h202.2l877.1 877.2 34.6-34.6-891.5-891.5h-173.5v-202.7l-447.4-447.5h-605.9l-835.1-835.1H12257z" style="fill:#19262c;fill-opacity:1;fill-rule:nonzero;stroke:none" transform="matrix(.1636 0 0 -.1636 0 2666.667)"/><path d="m14291.2 12738.1-204.5 204.4h-326.4v54.3h349l181.9-181.9 192.5 192.5h846.1l931.7 931.8 38.5-38.4-947.8-947.7h-846.1z" style="fill:#19262c;fill-opacity:1;fill-rule:nonzero;stroke:none" transform="matrix(.14732 0 0 -.14732 0 2666.667)"/><path d="M15081.7 12138.2h-395.4v48.9h375.2l425.9 425.9v292.1l337.9 337.9h190.8l482.6 482.6 34.6-34.6-497-496.9h-190.7l-309.3-309.3v-292zm1682.8-127.8h-694.7l-201 201h-241.2v48.9h261.5l201-201h674.4zM14569.6 10374h-1757.8v48.9h1737.6l261.2 261.2-329.2 329.2h-562l550.1 550.1h2226.1v-48.9h-2205.9l-452.2-452.3h464.1l378.2-378.1z" style="fill:#19262c;fill-opacity:1;fill-rule:nonzero;stroke:none" transform="matrix(.1636 0 0 -.1636 0 2666.667)"/><path d="M14465.5 9975.6h-645.8v48.9h625.5l634 633.9h1487.5v-48.9h-1467.3z" style="fill:#19262c;fill-opacity:1;fill-rule:nonzero;stroke:none" transform="matrix(.1636 0 0 -.1636 0 2666.667)"/><path d="M16617.2 9942.99h-714.4l-245.3 245.31h-474.1v48.9h494.3l245.3-245.31h694.2zm-1013 1040.91h-518.1l-219.4 219.3 34.7 34.6 205-205h477.5l225.1 225.1h808.8v-48.9h-788.5z" style="fill:#19262c;fill-opacity:1;fill-rule:nonzero;stroke:none" transform="matrix(.1636 0 0 -.1636 0 2666.667)"/><path d="M11740.8 6264.3h-60v1322.5l-462.4 462.4 504.8 504.8h4172.4v-60H11748l-444.7-444.8 437.5-437.5z" style="fill:#19262c;fill-opacity:1;fill-rule:nonzero;stroke:none" transform="matrix(.13333 0 0 -.13333 0 2666.667)"/><path d="M14807.6 4974.5H12973l-866.4 866.3V7950h60V5865.6l831.2-831.1h1809.8z" style="fill:#19262c;fill-opacity:1;fill-rule:nonzero;stroke:none" transform="matrix(.13333 0 0 -.13333 0 2666.667)"/><path d="M10174.9 5002.06h-48.9v1708.32h3295.6l152.6 152.57 305.2-305.3h1009.1l192.5 192.51h1381.3v-48.9h-1361.1l-192.5-192.51h-1049.5l-285 285.09-132.4-132.36h-3266.9z" style="fill:#19262c;fill-opacity:1;fill-rule:nonzero;stroke:none" transform="matrix(.1636 0 0 -.1636 0 2666.667)"/><path d="M16600.6-17.277 12263.8 4319.5h-1450.7l-352.6 352.57V6226.6h48.9V4692.28l323.9-323.88H12284L16635.1 17.277zM14863.5 3264.07h-658.1v48.9h637.9l436 436.03h1297.8v-48.9h-1277.6zm579-1405.46-34.5 34.56 227.8 227.79v578.81l-414.3 414.26 302.3 302.29h1053.3v-48.9H15544l-253.4-253.39 394.1-394.05v-619.23z" style="fill:#19262c;fill-opacity:1;fill-rule:nonzero;stroke:none" transform="matrix(.1636 0 0 -.1636 0 2666.667)"/><path d="m16547.6 483.948-928 928.042 285.1 285.17v1116.71l-194.5 194.54 34.5 34.55 208.9-208.88V1676.95l-264.9-264.96 893.5-893.488z" style="fill:#19262c;fill-opacity:1;fill-rule:nonzero;stroke:none" transform="matrix(.1636 0 0 -.1636 0 2666.667)"/><path d="m15971.8 2036.15-475 475.01v471.3h-598l-624.7 624.76 299.4 299.35h940.6v-51.82H14595l-247.6-247.53 572.9-572.94h628.3v-501.7l423.2-423.19 276.4 276.37v485.2l-278.8 278.87 36.6 36.62 294-293.99v-528.12z" style="fill:#19262c;fill-opacity:1;fill-rule:nonzero;stroke:none" transform="matrix(.15438 0 0 -.15438 0 2666.667)"/><path d="M10805.1 4920.56h-48.9v1171.32l295 294.95h376.6l269.4-269.44h1412.2l222 222.17h1806.3l121.1-121.19 203.9 203.83h1081.1v-48.9h-1060.9l-224.1-224.04-141.4 141.4h-1765.7l-222.1-222.17H11677l-269.4 269.44h-336.2l-266.3-266.34z" style="fill:#19262c;fill-opacity:1;fill-rule:nonzero;stroke:none" transform="matrix(.1636 0 0 -.1636 0 2666.667)"/><path d="M12381.8 5153.83h-53.7v1253.32l270.5 270.42 238.8-238.87h1791.4l319.6 319.54H16300v-53.78h-1329.3l-319.6-319.54h-1835.9l-216.6 216.64-216.8-216.73z" style="fill:#19262c;fill-opacity:1;fill-rule:nonzero;stroke:none" transform="matrix(.14876 0 0 -.14876 0 2666.667)"/><path d="m14424.3 3807.83-1028 1028.01h-1010v1024.59h52.9v-971.75h979l1006.1-1006.09 447.4 447.43H16300v-52.83h-1406.3z" style="fill:#19262c;fill-opacity:1;fill-rule:nonzero;stroke:none" transform="matrix(.15141 0 0 -.15141 0 2666.667)"/><path d="M11882.7 4910.3h-48.9v717.93h1642.6l311.4 311.41h2756v-48.9h-2735.7l-311.5-311.41h-1613.9z" style="fill:#19262c;fill-opacity:1;fill-rule:nonzero;stroke:none" transform="matrix(.1636 0 0 -.1636 0 2666.667)"/><path d="m15508.1 4625.69-922.8 922.86h-370.7v747.42h1740.7l304.2 304.33 40.5-40.49-321.1-320.99h-1707.1V5605.7h337.2l939.6-939.53z" style="fill:#19262c;fill-opacity:1;fill-rule:nonzero;stroke:none" transform="matrix(.13998 0 0 -.13998 0 2666.667)"/><path d="M16543.8 4024.22h-1091.2l-282.5 282.56-140-140.01h-1378l-848.5 848.58 34.5 34.55 834.3-834.23h1337.5l160.2 160.23 302.8-302.78h1070.9z" style="fill:#19262c;fill-opacity:1;fill-rule:nonzero;stroke:none" transform="matrix(.1636 0 0 -.1636 0 2666.667)"/><path d="m13651.7 4496.35-562.1 562.11 176.9 176.78h645l462.5 462.51h2105.3v-48.9h-2085l-462.5-462.51h-645.1l-127.9-127.88 527.5-527.47z" style="fill:#19262c;fill-opacity:1;fill-rule:nonzero;stroke:none" transform="matrix(.1636 0 0 -.1636 0 2666.667)"/><path d="M16592.7 4300.51H15646l-311.4 311.41h-430l-199.2-199.35h-607.9l-506.2 506.28h739.1v-48.9h-621.1l408.5-408.48h567.3l199.3 199.35h470.4l311.5-311.41h926.4zm-48.9 292.01h-852.9l-279.3 279.3h-560.2l-388.1 388.03 178.3 178.32h741.5v-48.9h-721.3l-129.3-129.42 339.1-339.13h560.2l279.3-279.3h832.7zM8300.28 11666.9l-614.46 614.4v4254.2h48.9v-4234l516.66-516.6v2133.6h48.9z" style="fill:#19262c;fill-opacity:1;fill-rule:nonzero;stroke:none" transform="matrix(.1636 0 0 -.1636 0 2666.667)"/><path d="M8968.48 14187.9h-54.7V15907l392.91 393 408.23-408.2v-506.6h-54.7v484l-353.53 353.4-338.21-338.2z" style="fill:#19262c;fill-opacity:1;fill-rule:nonzero;stroke:none" transform="matrix(.14626 0 0 -.14626 0 2666.667)"/><path d="M11004.3 14213.6v659.2l-582 582 39.1 39.1 598.2-598.2v-548.6l961.2 961.3h2713.5l991.7 991.6 39.1-39.1-1007.9-1007.8h-2713.5z" style="fill:#19262c;fill-opacity:1;fill-rule:nonzero;stroke:none" transform="matrix(.14467 0 0 -.14467 0 2666.667)"/><path d="m9882.69 13477.1-619.05 619h-347.25l-644.96 645-233.64-233.7-192.44 192.5v1808.5h48.89v-1788.3l143.55-143.5 233.64 233.6 665.25-665.2h347.25l633.31-633.4zm3053.71 393.8-34.5 34.5 803.6 803.7h611.6l1964.8 1964.8 34.6-34.6-1979.2-1979.1h-611.5zm-752.2-146.6h-1414.5v48.9h1394.2l1332.8 1332.7h607.1l1629.1 1629.1 34.5-34.6L14124 15057h-607.1z" style="fill:#19262c;fill-opacity:1;fill-rule:nonzero;stroke:none" transform="matrix(.1636 0 0 -.1636 0 2666.667)"/><path d="m11412.4 15496.7-748.2 748.1h-398v55.2h420.8l725.4-725.3 286.6 286.7h1793.7v-55.2h-1770.9z" style="fill:#19262c;fill-opacity:1;fill-rule:nonzero;stroke:none" transform="matrix(.14494 0 0 -.14494 0 2666.667)"/><path d="m9935.74 14373.9-371.46 371.4h-673.73l-220.04-220-582.04 582.1v1401h48.9v-1380.8l533.14-533.2 199.83 199.8h714.15l385.8-385.8z" style="fill:#19262c;fill-opacity:1;fill-rule:nonzero;stroke:none" transform="matrix(.1636 0 0 -.1636 0 2666.667)"/><path d="M12946.3 15168.5h-1965.1l-744.3 744.2H9173.13v51.8h1085.17l744.3-744.3h1922.3l1079.7 1079.8h738.7v-51.8h-717.2z" style="fill:#19262c;fill-opacity:1;fill-rule:nonzero;stroke:none" transform="matrix(.1545 0 0 -.1545 0 2666.667)"/><path d="M11996.2 14585.9h-1596.6l-690.34 690.4h-909.65l-237.08 237.1h-290.69V16560h48.89v-997.7h262.01l237.08-237.1h909.65l690.43-690.4h1576.3z" style="fill:#19262c;fill-opacity:1;fill-rule:nonzero;stroke:none" transform="matrix(.1636 0 0 -.1636 0 2666.667)"/><path d="M12364.9 14913.8H10565v48.9h1779.7l700.8 700.8H14268l1063.9 1063.9 34.6-34.5-1078.3-1078.3h-1222.4z" style="fill:#19262c;fill-opacity:1;fill-rule:nonzero;stroke:none" transform="matrix(.1636 0 0 -.1636 0 2666.667)"/><path d="M12159.7 15204h-1869.1l-259.1 259.1H8935.21l-408.05 408v721.5h48.9v-701.2l379.45-379.4h1096.29l259-259.1h1848.9z" style="fill:#19262c;fill-opacity:1;fill-rule:nonzero;stroke:none" transform="matrix(.1636 0 0 -.1636 0 2666.667)"/><path d="M12827.1 15834.9h-1962.2v50.2h1941.4l415 414.9H14391v-50.2h-1149z" style="fill:#19262c;fill-opacity:1;fill-rule:nonzero;stroke:none" transform="matrix(.15938 0 0 -.15938 0 2666.667)"/><path d="M12224.4 15702.5H9040.91l-301.69 301.7v645.4h48.89v-625.1l273.01-273.1h3163.28z" style="fill:#19262c;fill-opacity:1;fill-rule:nonzero;stroke:none" transform="matrix(.1636 0 0 -.1636 0 2666.667)"/><path d="M12516.1 15975.8H9471.05v48.9h3024.85l96 96h1357.4l569.6 569.5 34.6-34.6-583.9-583.8h-1357.5z" style="fill:#19262c;fill-opacity:1;fill-rule:nonzero;stroke:none" transform="matrix(.1636 0 0 -.1636 0 2666.667)"/><path d="m14364.5-281.598-1168.7 1168.7h-1885v60h1909.9l1186.2-1186.301z" style="fill:#19262c;fill-opacity:1;fill-rule:nonzero;stroke:none" transform="matrix(.13333 0 0 -.13333 0 2666.667)"/><path d="M14595.5-281.598 13249 1064.8h-1724.8l-468.5 468.5v2417.6L9621.65 5385v3556.7l247.11 247.1H10530v-60h-636.39l-211.96-211.9v-3507l1434.05-1434.1V1558.2l433.4-433.4h1724.8l8.8-8.8 1355.2-1355.199zm-920-75-637.3 637.2h-1881.5v60h1906.4l654.8-654.801z" style="fill:#19262c;fill-opacity:1;fill-rule:nonzero;stroke:none" transform="matrix(.13333 0 0 -.13333 0 2666.667)"/><path d="M16282.7-449.227 12511.1 3322.43h-1444.9v48.9h1465.1l7.1-7.17 3778.9-3778.829z" style="fill:#19262c;fill-opacity:1;fill-rule:nonzero;stroke:none" transform="matrix(.1636 0 0 -.1636 0 2666.667)"/><path d="m14805.6-221.199-1472 1471.899h-1526l-431.8 431.8v2298.9l-1485.97 1486v1600l369.17 369.2V7850h60v-438.2l-369.17-369.2V5492.2l1485.97-1486V1707.4l396.6-396.7h1526.1L14848-178.801z" style="fill:#19262c;fill-opacity:1;fill-rule:nonzero;stroke:none" transform="matrix(.13333 0 0 -.13333 0 2666.667)"/><path d="m15059.2-221.199-1705 1704.999h-1336.6l-255.3 255.2 42.5 42.4 237.6-237.6H13379l1722.6-1722.601z" style="fill:#19262c;fill-opacity:1;fill-rule:nonzero;stroke:none" transform="matrix(.13333 0 0 -.13333 0 2666.667)"/><path d="M15494.2-221.199 13437.8 1835.2h-1229.4l-544.7 544.7v1714.3l-1330.1 1330.1v1484h60V5449.1L11723.7 4119V2404.7l509.5-509.5h1229.5l2073.9-2074.001z" style="fill:#19262c;fill-opacity:1;fill-rule:nonzero;stroke:none" transform="matrix(.13333 0 0 -.13333 0 2666.667)"/><path d="M15874.4-221.199 13582.2 2071h-1168l-409.7 409.8v1809.3l-1214.6 1214.6v745h60v-720.1l1214.6-1214.7V2505.6l374.6-374.6H13607l2309.8-2309.801z" style="fill:#19262c;fill-opacity:1;fill-rule:nonzero;stroke:none" transform="matrix(.13333 0 0 -.13333 0 2666.667)"/><path d="M16263.7-348.513 14793.8 1121.32h-363.7v617.49l-1318.9 1318.97 36.3 36.35 1334.1-1334.06v-587.32h333.6L16300-312.172z" style="fill:#19262c;fill-opacity:1;fill-rule:nonzero;stroke:none" transform="matrix(.15555 0 0 -.15555 0 2666.667)"/><path d="M16257.8 1976.12 14581.1 3652.8h-1502.7L11507 5224.29l42.1 42.08L13103 3712.35h1502.8L16300 2018.3z" style="fill:#19262c;fill-opacity:1;fill-rule:nonzero;stroke:none" transform="matrix(.13434 0 0 -.13434 0 2666.667)"/><path d="m16262.4-487.073-906.7 906.812v313.699h-406.3L12841.1 2841.77h-737.9v53.02h759.9l2108.2-2108.332h437.4V441.654l891.3-891.258z" style="fill:#19262c;fill-opacity:1;fill-rule:nonzero;stroke:none" transform="matrix(.15089 0 0 -.15089 0 2666.667)"/><path d="m16261.6-408.97-2116.9 2116.82h-347.3l-865.8 865.71h-978.3l-577.8 577.83 38.4 38.44 561.9-561.88h978.4l865.7-865.71h347.3l8-7.98L16300-370.54z" style="fill:#19262c;fill-opacity:1;fill-rule:nonzero;stroke:none" transform="matrix(.1471 0 0 -.1471 0 2666.667)"/><path d="M16260.4-379.776 14532.3 1348.28h-314.4L13275.2 2291l39.6 39.6 926.3-926.28h314.4L16300-340.174z" style="fill:#19262c;fill-opacity:1;fill-rule:nonzero;stroke:none" transform="matrix(.14275 0 0 -.14275 0 2666.667)"/><path d="M16258.8-346.821 14803.4 1108.45H14551l-1219.2 1219.23h-759.1l-353.9 353.83 41.3 41.33 336.7-336.8h759.1l1219.2-1219.23h252.4L16300-305.585z" style="fill:#19262c;fill-opacity:1;fill-rule:nonzero;stroke:none" transform="matrix(.1371 0 0 -.1371 0 2666.667)"/><path d="M6247.83 11523.9h-48.9v1685.8l931.96 932v2366.7h48.9v-2387l-931.96-931.9z" style="fill:#19262c;fill-opacity:1;fill-rule:nonzero;stroke:none" transform="matrix(.1636 0 0 -.1636 0 2666.667)"/><path d="M7469.56 12532.3h-58.54v462.2l526.23 526.2v1650.4l512.47 512.4v616.5h58.53v-640.7l-512.46-512.5v-1650.4l-526.23-526.2z" style="fill:#19262c;fill-opacity:1;fill-rule:nonzero;stroke:none" transform="matrix(.13667 0 0 -.13667 0 2666.667)"/><path d="m9699.96 12310.9-169.05 169.1H8083.33v745.8l516.67 516.6v1713.4h60v-1738.2l-516.67-516.7V12540h1412.43l144.2-144.2 173.25 173.3H10372v454.2h60v-514.2h-533.93z" style="fill:#19262c;fill-opacity:1;fill-rule:nonzero;stroke:none" transform="matrix(.13333 0 0 -.13333 0 2666.667)"/><path d="M9644.33 12721.9H8840v301.8l429.07 429 42.42-42.4-411.49-411.5v-216.9h719.48l118.09 118.1h299.93v516.5l-1051.06 1051.1V13537l-455.02-455-42.43 42.4 437.45 437.5v1050.5l1171.06-1171V12840h-335.07z" style="fill:#19262c;fill-opacity:1;fill-rule:nonzero;stroke:none" transform="matrix(.13333 0 0 -.13333 0 2666.667)"/><path d="M6512.17 11956.2H4593.38v56.4h1895.44l309.82 309.8v3055.9l921.67 921.7 39.86-39.9-905.14-905.1v-3055.9z" style="fill:#19262c;fill-opacity:1;fill-rule:nonzero;stroke:none" transform="matrix(.14187 0 0 -.14187 0 2666.667)"/><path d="M3885.76 12396.7h-1546.9l-892.55 892.5H-513.57v60h1984.74l892.55-892.5h1497.19l315.76 315.7 305.76-305.7h2079.32v-60H4457.57l-280.9 280.9zm-2673.33-1780.3H-712.883v60H1187.57l542.75 542.8h1824.06l713.02 713 42.42-42.4-730.59-730.6H1755.18z" style="fill:#19262c;fill-opacity:1;fill-rule:nonzero;stroke:none" transform="matrix(.13333 0 0 -.13333 0 2666.667)"/><path d="M1093.47 10899H-636.664v60H1068.61l535.63 535.6h1662.08l584.59 584.6H2158.55l-859.6 859.6 42.42 42.4 842.04-842h1812.35l-704.59-704.6H1629.1z" style="fill:#19262c;fill-opacity:1;fill-rule:nonzero;stroke:none" transform="matrix(.13333 0 0 -.13333 0 2666.667)"/><path d="M2950 11803.3h-909.09L757.574 13086.7H-513.57v60H782.426l8.789-8.8 1274.545-1274.6H2950z" style="fill:#19262c;fill-opacity:1;fill-rule:nonzero;stroke:none" transform="matrix(.13333 0 0 -.13333 0 2666.667)"/><path d="M997.426 11165H-393.336v60h1365.91l626.666 626.7-787.123 787.1 42.426 42.4 829.547-829.5z" style="fill:#19262c;fill-opacity:1;fill-rule:nonzero;stroke:none" transform="matrix(.13333 0 0 -.13333 0 2666.667)"/><path d="m770.637 11619.4-42.422 42.4 299.805 299.8-837.118 837.1h-764.476v60h789.332l897.112-897.1zm2454.173-6853-42.42 42.4 2218.77 2218.8h1174.99l663.12 663.1v912.5l-704.26 704.2H5400v60h1159.87l739.4-739.4v-962.2L6601 6967.6H5426.01zM9886.12-739.297h-60V3357.8L7625 5558.9v1508.5l179.11 179.1-106.03 106.1v1423l-189.1 189.1 42.43 42.5 206.67-206.7V7377.4l130.88-130.9L7685 7042.6V5583.7l2201.12-2201.1z" style="fill:#19262c;fill-opacity:1;fill-rule:nonzero;stroke:none" transform="matrix(.13333 0 0 -.13333 0 2666.667)"/><path d="M3842.43 8375.6H3229.5L2816.13 8789H1783.77l-286.36-286.3-269.84 269.8H-630v60h1882.43l244.98-245 261.51 261.5h1082.07l413.37-413.4h563.21l240.03 240.1h539.97l330.15 330.1H6160v-60H4952.57l-330.14-330.1h-539.98zM331.215-431.199l-42.422 42.398L3041.35 2363.8v1812L5516.58 6651h1311l344.82 344.8 42.42-42.4-362.39-362.4h-1311L3101.35 4150.9v-1812z" style="fill:#19262c;fill-opacity:1;fill-rule:nonzero;stroke:none" transform="matrix(.13333 0 0 -.13333 0 2666.667)"/><path d="m692.59-551.199-42.43 42.402L3341.04 2182.1v1824.1l2315.55 2315.6h1389.46v-60h-1364.6L3401.04 3981.4V2157.3z" style="fill:#19262c;fill-opacity:1;fill-rule:nonzero;stroke:none" transform="matrix(.13333 0 0 -.13333 0 2666.667)"/><path d="m1222.56-551.199-42.42 42.402L3721.46 2032.5v1682.9h60V2007.7zm538.65 0-42.42 42.402L3512.57 1285h1295l1323.72 1323.7 42.42-42.4L4832.43 1225h-1295z" style="fill:#19262c;fill-opacity:1;fill-rule:nonzero;stroke:none" transform="matrix(.13333 0 0 -.13333 0 2666.667)"/><path d="M4477.5 1513.3h-866.59l505.76 505.8v2249.6l1640.67 1640.6 42.42-42.4-1623.09-1623.1V1994.2l-420.91-420.9h721.74z" style="fill:#19262c;fill-opacity:1;fill-rule:nonzero;stroke:none" transform="matrix(.13333 0 0 -.13333 0 2666.667)"/><path d="M5055.76 1913.3H4420v2103.4h60V1973.3h550.91l735.76 735.8v338.7l407.31 407.3v907.3l516.23 516.3 42.42-42.5-498.65-498.6v-907.3l-407.31-407.4v-338.7z" style="fill:#19262c;fill-opacity:1;fill-rule:nonzero;stroke:none" transform="matrix(.13333 0 0 -.13333 0 2666.667)"/><path d="M4760.94 2550h-60v1829l1652.58 1652.5h976.13V4693l-560.22-560.2-42.42 42.4 542.64 542.6v1253.7h-891.28L4760.94 4354.1z" style="fill:#19262c;fill-opacity:1;fill-rule:nonzero;stroke:none" transform="matrix(.13333 0 0 -.13333 0 2666.667)"/><path d="M4973.33 2224v1869.3h60V2368.8l450.14 450.2v370.1l398.26 398.3v535.9h60v-560.8l-398.26-398.3v-370.1z" style="fill:#19262c;fill-opacity:1;fill-rule:nonzero;stroke:none" transform="matrix(.13333 0 0 -.13333 0 2666.667)"/><path d="M5446.67 3715.7h-60v793.4l279.69 279.7h359.75l755.88 755.9 42.42-42.5-773.45-773.4h-359.74l-244.55-244.6zM2274.55-654.598l-42.43 42.5L3777.58 933.301h1310L6809.24 2655l-297.19 297.2v472.4l1209.83 1209.8 42.43-42.4-1192.26-1192.3v-422.6L6894.1 2655 5112.43 873.301h-1310z" style="fill:#19262c;fill-opacity:1;fill-rule:nonzero;stroke:none" transform="matrix(.13333 0 0 -.13333 0 2666.667)"/><path d="M8719.26 1465v1406.7h60V1609.8l652.59 652.6v1057.4L8424.24 4327.4h-598.12L6886.67 3388v-225.8h-60v250.6l974.6 974.6h647.82l1042.76-1042.7V2237.6z" style="fill:#19262c;fill-opacity:1;fill-rule:nonzero;stroke:none" transform="matrix(.13333 0 0 -.13333 0 2666.667)"/><path d="M5082.59 489.801H4045v60h1012.74L7155.33 2647.4v715.1l722.24 722.2h495.62L9140 3317.9V2485h-60v808.1l-731.67 731.6h-445.9l-687.1-687.1v-715l-8.79-8.8z" style="fill:#19262c;fill-opacity:1;fill-rule:nonzero;stroke:none" transform="matrix(.13333 0 0 -.13333 0 2666.667)"/><path d="m2849.77-711.199-42.43 42.402 907.16 907.199h1493.07L7391.42 2422.2v800.1l564.79 564.8h326.22l403.97-404-303.28-303.3V1504.9l354.56-354.6 604.3 604.3 42.42-42.4-646.72-646.7-414.56 414.6v1624.6l278.43 278.4-343.98 344h-276.51l-529.64-529.7v-800l-8.78-8.8L5232.43 178.402H3739.36zM9660-335.398h-60V1084.2l-210 210-278.53-278.5-42.43 42.4 320.96 321 270-270z" style="fill:#19262c;fill-opacity:1;fill-rule:nonzero;stroke:none" transform="matrix(.13333 0 0 -.13333 0 2666.667)"/><path d="m5478.75-181.199-42.43 42.398L7668.76 2093.7v916.4l337.63 337.6 42.42-42.4-320.05-320v-916.5z" style="fill:#19262c;fill-opacity:1;fill-rule:nonzero;stroke:none" transform="matrix(.13333 0 0 -.13333 0 2666.667)"/><path d="m5799.76-221.199-42.42 42.398 429.51 429.5h543.29l364.11 364.102V1056.3l899.41 899.4v535.5h60v-560.4l-899.41-899.4V590l-399.26-399.301H6211.7zm1056.46 75-42.43 42.398 598.71 598.703V782.5h60V470.102z" style="fill:#19262c;fill-opacity:1;fill-rule:nonzero;stroke:none" transform="matrix(.13333 0 0 -.13333 0 2666.667)"/><path d="m7251.21-221.199-42.42 42.398L7715 327.402V1229.1l306.21 306.2 506.45-506.5V792.5l351.67-351.598h266.35l89.39 89.399 42.43-42.5-106.97-106.899h-316.06l-386.81 386.797V1004l-446.45 446.4L7775 1204.2V302.602z" style="fill:#19262c;fill-opacity:1;fill-rule:nonzero;stroke:none" transform="matrix(.13333 0 0 -.13333 0 2666.667)"/><path d="m7816.22-311.598-42.43 42.399 466.04 466.097v563.801l-113.95 113.903L8168.32 917l131.51-131.5V172z" style="fill:#19262c;fill-opacity:1;fill-rule:nonzero;stroke:none" transform="matrix(.13333 0 0 -.13333 0 2666.667)"/><path d="M5266.31 11026H4237.79v48.9h1008.27l439.62 439.6v1984l1225.35 1225.3v1754.7h48.89v-1774.9l-7.16-7.2-1218.18-1218.2v-1983.9zm-1570.94 1466.5h-48.9V14296l-828.69 828.7H1425.13l-1670.605 1670.6 34.572 34.6 1656.293-1656.3h1392.65l857.33-857.3z" style="fill:#19262c;fill-opacity:1;fill-rule:nonzero;stroke:none" transform="matrix(.1636 0 0 -.1636 0 2666.667)"/><path d="m4056.63 12994.3-449.5 449.5v2120.8l-681.87 681.8H2311.6v53.6h635.85l713.23-713.2V13466l395.95-395.9 368.08 368v2322.5h53.55V13416z" style="fill:#19262c;fill-opacity:1;fill-rule:nonzero;stroke:none" transform="matrix(.1494 0 0 -.1494 0 2666.667)"/><path d="M5698.13 12676.6h-682.52l-193.29 193.3h-278.53l-191.61-191.6-1013.52 1013.5v2100.4l-468.89 468.9 38.91 38.9 485.01-485v-2100.4l958.49-958.5 168.81 168.8h324.13l193.28-193.3h636.92l306.44 306.4 38.91-38.9z" style="fill:#19262c;fill-opacity:1;fill-rule:nonzero;stroke:none" transform="matrix(.14537 0 0 -.14537 0 2666.667)"/><path d="M2500.27 15398.7h-966.05l-7.16 7.1-1389.504 1389.5 34.572 34.6 1382.352-1382.3h945.79z" style="fill:#19262c;fill-opacity:1;fill-rule:nonzero;stroke:none" transform="matrix(.1636 0 0 -.1636 0 2666.667)"/><path d="m3516.21 14855-819.39 819.4H1589.91l-7.16 7.1-1113.779 1113.8 34.572 34.6 1106.627-1106.6h1106.9l833.71-833.7z" style="fill:#19262c;fill-opacity:1;fill-rule:nonzero;stroke:none" transform="matrix(.1636 0 0 -.1636 0 2666.667)"/><path d="M4247.92 14962.1H3788.1l-1011.07 1011.1H1676.84l-822.12 822.1 34.572 34.6 807.808-807.8h1100.19L3808.36 15011h419.3l236.6 236.6h621.09v-48.9h-600.83z" style="fill:#19262c;fill-opacity:1;fill-rule:nonzero;stroke:none" transform="matrix(.1636 0 0 -.1636 0 2666.667)"/><path d="m3825.25 15381.4-779.28 779.2H1880.58l-414.64 414.7 34.57 34.6 400.33-400.4h1165.39l793.59-793.6zm1508.21-501.7h-655.59v48.9h635.33l310.15 310.1-238.45 238.5H4111.5l-1041.07 1041 34.57 34.6 1026.76-1026.7h1273.4l287.34-287.4zM4993.52 11518h-491.49l-260.17 260.1h-202.59v48.9h222.85l260.16-260.1h450.98l485.57 485.5v1530.8l7.16 7.2 1249.27 1249.3v1638.8h48.9v-1659.1l-7.16-7.1L5507.72 13563v-1530.8z" style="fill:#19262c;fill-opacity:1;fill-rule:nonzero;stroke:none" transform="matrix(.1636 0 0 -.1636 0 2666.667)"/><path d="m4941.59 11937.6-34.57 34.6 243.28 243.3V14139l815.47 815.5v400l-339.09 339.1H4274.09l-797.44 797.5 34.58 34.5 783.11-783.1h1352.59l367.74-367.7v-440.5l-815.48-815.5v-1923.6z" style="fill:#19262c;fill-opacity:1;fill-rule:nonzero;stroke:none" transform="matrix(.1636 0 0 -.1636 0 2666.667)"/><path d="m5510.91 14050-34.57 34.6 681.46 681.5v709.1l-449.63 449.6H4468.73l-536.37 536.4 34.58 34.6 522.05-522.1h1239.43l478.28-478.3v-749.6z" style="fill:#19262c;fill-opacity:1;fill-rule:nonzero;stroke:none" transform="matrix(.1636 0 0 -.1636 0 2666.667)"/><path d="M6471.51 15019.2h-48.9v573.8l-556.87 556.9H4683.15l-286.86 286.8 34.57 34.6 272.55-272.5h1182.58l585.52-585.5z" style="fill:#19262c;fill-opacity:1;fill-rule:nonzero;stroke:none" transform="matrix(.1636 0 0 -.1636 0 2666.667)"/><path d="M4792.04 13871.2h-54.37v2080.7l348.08 348.1h568.22v-54.4h-545.7l-316.23-316.2z" style="fill:#19262c;fill-opacity:1;fill-rule:nonzero;stroke:none" transform="matrix(.14715 0 0 -.14715 0 2666.667)"/><path d="m5187.53 13810.2-39.61 39.6 351.54 351.5v281.4l-253.74 253.8V16300h56v-1540.3l253.75-253.8v-327.8z" style="fill:#19262c;fill-opacity:1;fill-rule:nonzero;stroke:none" transform="matrix(.14285 0 0 -.14285 0 2666.667)"/><path d="M1800.29 8036.5h-549.65l-261.714 261.7h-1625.59v60H1013.78l261.71-261.7h499.94l363.6 363.6h509.67l296.46-296.5h1087.41l179.13 179.2h535.87l291.12 291.1h1003.74l284.34-284.4h296.83v-60h-321.68l-284.35 284.4h-954.03l-291.11-291.1h-535.87l-179.13-179.2H2920.3l-296.45 296.5h-459.97zM-711.672-391.598l-42.422 42.399L2153.19 2558.1v2513.7l1010.62 1010.6V6877l687.83 687.9h565.93l320.08 320h299.92l295.04 295.1H5740v-60h-382.54l-295.03-295.1H4762.5l-320.07-320h-565.94l-652.68-652.7v-794.7L2213.19 5046.9V2533.3z" style="fill:#19262c;fill-opacity:1;fill-rule:nonzero;stroke:none" transform="matrix(.13333 0 0 -.13333 0 2666.667)"/><path d="m-402.359 479.398-42.426 42.403L1674.16 2640.8v2589.6l-505.01 505v1159.4h60V5760.2l505.01-505V2615.9zM2463.05 7428.1l-315.48 315.5h-577.78L1328.13 7502H855.613l-358.039 358H-560v60H522.426l358.043-358h422.811l241.66 241.6h627.49l290.62-290.6 176.12 176.1h490.32v-60h-465.46z" style="fill:#19262c;fill-opacity:1;fill-rule:nonzero;stroke:none" transform="matrix(.13333 0 0 -.13333 0 2666.667)"/><path d="M1644.14 5955h-60v318.3l269.15 269.1v656.9l-232.95 232.9-167.91-167.9H678.258L507.574 7435H-445v60h977.426l170.683-170.7h724.461l192.77 192.8 292.95-293v-706.5l-269.15-269.2zm487.46-649-234.93 234.9v636.5l230.83 230.9V6987l498.95 499 267.83-267.9v-650.5l-515.03-515.1-42.42 42.5 497.45 497.4v600.9l-207.83 207.8-438.95-438.9v-578.8l-230.83-230.8v-586.8l174.93-175 541.29 541.3 42.42-42.4z" style="fill:#19262c;fill-opacity:1;fill-rule:nonzero;stroke:none" transform="matrix(.13333 0 0 -.13333 0 2666.667)"/><path d="M1325.18 3035.4h-60v1956.8l-419.692 419.7v1072.7l-547.91 547.9h-721.152v60h746.008l583.054-583.1V5436.7l419.692-419.6z" style="fill:#19262c;fill-opacity:1;fill-rule:nonzero;stroke:none" transform="matrix(.13333 0 0 -.13333 0 2666.667)"/><path d="M559.629 2364.4h-60v1729.2l368.07 368V4888l-342.406 342.4v1209.7l-331.324 331.3h-617.543v60h642.398l366.469-366.5V5255.2l342.406-342.4v-476l-368.07-368.1z" style="fill:#19262c;fill-opacity:1;fill-rule:nonzero;stroke:none" transform="matrix(.13333 0 0 -.13333 0 2666.667)"/><path d="M3121.08 10407.2h-923.73v48.9h903.48l366.77 366.8-1209.32 1209.3v1610.1l-2794.428 2794.4 34.582 34.6 2808.746-2808.7v-1610.2l1229.57-1229.5z" style="fill:#19262c;fill-opacity:1;fill-rule:nonzero;stroke:none" transform="matrix(.1636 0 0 -.1636 0 2666.667)"/><path d="m2891.9 11582.5-850.99 851v1534.1L-255.518 16264l35.987 36L2091.8 13988.7v-1534.1l836.09-836.1z" style="fill:#19262c;fill-opacity:1;fill-rule:nonzero;stroke:none" transform="matrix(.15718 0 0 -.15718 0 2666.667)"/><path d="M3080.4 13098.4h-923.05l-459.78 459.8H-470v60h2192.43l459.78-459.8h873.34l169.79 169.8-1212.37 1212.4V16050h60v-1484.6l1237.23-1237.2z" style="fill:#19262c;fill-opacity:1;fill-rule:nonzero;stroke:none" transform="matrix(.13333 0 0 -.13333 0 2666.667)"/><path d="m2050.89 11858.4-520.9 520.9v2134.9L-218.884 16263l36.963 37 1764.191-1764.2v-2134.9l505.59-505.6z" style="fill:#19262c;fill-opacity:1;fill-rule:nonzero;stroke:none" transform="matrix(.15303 0 0 -.15303 0 2666.667)"/><path d="M1195.5 13843.6H-469.896v60H1170.65l245.63 245.6V16300h59.98v-2175.6z" style="fill:#19262c;fill-opacity:1;fill-rule:nonzero;stroke:none" transform="matrix(.13336 0 0 -.13336 0 2666.667)"/><path d="M1020.97 13069h-53.705v2000.9L-224.84 16262l37.968 38 1207.842-1207.8z" style="fill:#19262c;fill-opacity:1;fill-rule:nonzero;stroke:none" transform="matrix(.14897 0 0 -.14897 0 2666.667)"/><path d="M388.71 13256.7h-55.399v1194.7l293.093 293.1v704.1l-812.18 812.2 39.168 39.2 828.411-828.4v-750l-293.093-293.1z" style="fill:#19262c;fill-opacity:1;fill-rule:nonzero;stroke:none" transform="matrix(.1444 0 0 -.1444 0 2666.667)"/></svg>